<svg xmlns="http://www.w3.org/2000/svg" viewBox="0 0 539.05 541"><defs><style>.cls-1{fill:#00dff4;}.cls-2{fill:#c3f;}.cls-3{fill:#abfaff;}.cls-4{fill:#f9f;}.cls-5{fill:#fff;}.cls-6{fill:#e690ff;}.cls-7{fill:#0037c1;fill-rule:evenodd;}</style></defs><title>ddwww</title><g id="Capa_2" data-name="Capa 2"><g id="Capa_1-2" data-name="Capa 1"><path class="cls-1" d="M269.83,344c-2.72,0-4.93-3.09-4.93-6.89v-6.33c0-3.79,2.21-6.88,4.93-6.88s4.93,3.09,4.93,6.88v6.33C274.76,340.92,272.55,344,269.83,344Zm0-15.73c-1,0-1.8,1.13-1.8,2.51v6.33c0,1.39.81,2.52,1.8,2.52s1.8-1.13,1.8-2.52v-6.33C271.63,329.41,270.82,328.28,269.83,328.28ZM244.06,340.7a1,1,0,0,1-.24,0c-4.86-1-13.92-2.94-19.54-18.29a2.66,2.66,0,0,1,.68-2.94c.78-.54,1.72-.12,2.11.95,4.51,12.32,11.25,14.7,17.22,16a2.2,2.2,0,0,1,1.31,2.49C245.48,339.93,244.82,340.7,244.06,340.7Zm25.77-23.3c-2.72,0-4.93-3.09-4.93-6.89v-6.33c0-3.79,2.21-6.88,4.93-6.88s4.93,3.09,4.93,6.88v6.33C274.76,314.31,272.55,317.4,269.83,317.4Zm0-15.73c-1,0-1.8,1.12-1.8,2.51v6.33c0,1.38.81,2.52,1.8,2.52s1.8-1.14,1.8-2.52v-6.33C271.63,302.79,270.82,301.67,269.83,301.67Zm0-10.88c-2.72,0-4.93-3.09-4.93-6.89v-6.33c0-3.79,2.21-6.88,4.93-6.88s4.93,3.09,4.93,6.88v6.33C274.76,287.7,272.55,290.79,269.83,290.79Zm0-15.73c-1,0-1.8,1.13-1.8,2.51v6.33c0,1.39.81,2.52,1.8,2.52s1.8-1.13,1.8-2.52v-6.33C271.63,276.19,270.82,275.06,269.83,275.06ZM221.93,267a1.43,1.43,0,0,1-.29,0,2.25,2.25,0,0,1-1.25-2.55c2.91-21.87,11.37-33.2,25.86-34.62,15.52-1.52,28.59-3.91,38.84-7.1.82-.25,1.67.48,1.87,1.66a2.33,2.33,0,0,1-1.19,2.61c-10.41,3.23-23.63,5.65-39.3,7.19-13.05,1.28-20.36,11.15-23,31.06C223.32,266.26,222.67,267,221.93,267Zm105.36-50a1.36,1.36,0,0,1-1.07-.59c-1.49-2-4-2.79-7.48-2.43-.85,0-1.61-.82-1.67-2s.59-2.25,1.45-2.34c4.44-.44,7.66.74,9.84,3.61a2.82,2.82,0,0,1,.07,3.08A1.4,1.4,0,0,1,327.29,217Z"/><path class="cls-2" d="M284.19,367.94a1.21,1.21,0,0,1-.76-.28L251.2,342.08c-3.92-3.43-6.4-9.49-6.4-15.49V255.52c0-7,3.45-12.05,8.4-12.19a134.73,134.73,0,0,0,39.09-7.18c.84-.28,1.68.44,1.88,1.61A2.33,2.33,0,0,1,293,240.4a137.25,137.25,0,0,1-39.75,7.3c-3.2.09-5.35,3.24-5.35,7.82v71.07c0,4.46,2,9.18,4.88,11.74L285,363.86a2.71,2.71,0,0,1,.59,3A1.57,1.57,0,0,1,284.19,367.94Zm-52-51.81-.44,0c-13.11-1.31-44.9-6.83-56.95-29.89a2.76,2.76,0,0,1-.31-1.29V252.25a2.27,2.27,0,0,1,1-2.05,1.3,1.3,0,0,1,1.73.63c.11.18,12.09,18.53,55,19.79,3.44.1,6.13,3.91,6.13,8.67v28.16a10.56,10.56,0,0,1-2,6.36A5.39,5.39,0,0,1,232.2,316.13ZM177.63,284.2c11.52,21.11,41.79,26.29,54.36,27.55a2.6,2.6,0,0,0,2.29-1.14,5.19,5.19,0,0,0,1-3.16V279.29c0-2.36-1.34-4.25-3.06-4.3h0c-33.73-1-48.94-12.21-54.57-18Zm11.42-25a1.62,1.62,0,0,1-1.4-1.21,2.66,2.66,0,0,1,.7-2.93c1.92-1.34,7.09-3.54,9.4-4.49V228c-7.55,2.49-20.66,10-20.13,16.54a2.14,2.14,0,0,1-1.38,2.42c-.82.13-1.63-.73-1.73-1.93-1-12.69,20.53-20.88,24.53-21.87a1.3,1.3,0,0,1,1.28.48,2.65,2.65,0,0,1,.56,1.68v27a2.21,2.21,0,0,1-1.14,2.1c-2.16.87-8.17,3.39-10,4.66A1.24,1.24,0,0,1,189.05,259.24Zm115.8-13.19a3.46,3.46,0,0,1-2.85-1.7c-2.86-4.21-6.78-10.89-11.31-18.63-13.42-22.86-33.68-57.41-47.66-63a22.47,22.47,0,0,0-24,4.07c-7.47,6.42-12.79,17.67-14.6,30.87-.17,1.18-1,2-1.83,1.74a2.26,2.26,0,0,1-1.24-2.56c2-14.4,7.82-26.71,16-33.77,7.76-6.67,17.16-8.29,26.47-4.55,14.91,6,34.74,39.77,49.21,64.45,4.5,7.67,8.39,14.29,11.17,18.39a.7.7,0,0,0,.86.29l17.34-7.14c-46.18-89.54-68.21-82-77.61-78.77-.84.29-1.69-.43-1.89-1.6a2.34,2.34,0,0,1,1.14-2.65c16.56-5.66,39.11-.5,80.76,80.9a5.46,5.46,0,0,1,.39,3.73,3.61,3.61,0,0,1-1.91,2.58L306,245.82A3,3,0,0,1,304.85,246.05Zm-75.49-11.4c-.87,0-1.57-1-1.57-2.19V217.7a2.11,2.11,0,0,1,1.3-2.15c18-4.38,43.63-1.74,51.06-.82a2.1,2.1,0,0,1,1.42,2.37c-.07,1.2-.83,2.08-1.69,2-7.17-.88-31.45-3.4-49,.47v12.9C230.92,233.67,230.22,234.65,229.36,234.65Zm137.17-3.85s-33.36-5.78-36.69-6.39a6.22,6.22,0,0,0-4.32.89c-.79.47-1.71-.05-2-1.16a2.6,2.6,0,0,1,.83-2.87,8.56,8.56,0,0,1,5.94-1.19c3.34.61,36.67,6.39,36.67,6.39C369.09,226.83,368.52,231.16,366.53,230.8ZM222.14,198.31a1.15,1.15,0,0,1-.26,0,2.22,2.22,0,0,1-1.28-2.52c2.19-18.11,8.29-30,17.19-33.38.83-.32,1.69.37,1.92,1.53a2.38,2.38,0,0,1-1.1,2.68c-7.65,2.94-13,13.56-14.93,29.9C223.55,197.56,222.89,198.31,222.14,198.31Z"/><path class="cls-2" d="M295.07,367.94c-2.74,0-5.57-1.53-8-4.36a24.08,24.08,0,0,1-5.25-15.13V270.22c0-7.62,3.74-13.05,9.1-13.21,26.22-.76,52.58-8.94,78.33-24.3,3.69-2.19,7.42-1.92,10.25.7,2.53,2.34,4,6.37,4,11.05v65.9c0,6.77-3,13.68-7.38,17.21-25.79,20.57-52.52,34.09-79.43,40.19A7.56,7.56,0,0,1,295.07,367.94Zm79.14-132.33a7.28,7.28,0,0,0-3.7,1.12c-26.11,15.58-52.86,23.88-79.49,24.65-3.61.11-6,3.66-6,8.84v78.23a19.06,19.06,0,0,0,4.14,11.79c2.17,2.57,4.75,3.73,7.07,3.2,26.55-6,52.93-19.36,78.39-39.67,3.42-2.72,5.8-8.24,5.8-13.41v-65.9h0c0-3.24-.91-5.87-2.57-7.41A5.21,5.21,0,0,0,374.21,235.61ZM294.9,355.19a1.38,1.38,0,0,1-1.11-.64,2.84,2.84,0,0,1,0-3.09L368.06,247.6a1.29,1.29,0,0,1,2.22,0,2.88,2.88,0,0,1,0,3.09L296,354.55A1.35,1.35,0,0,1,294.9,355.19Zm42.29-22.27a1.38,1.38,0,0,1-1.11-.64,2.89,2.89,0,0,1,0-3.1l30.13-42.13a1.28,1.28,0,0,1,2.21,0,2.85,2.85,0,0,1,0,3.1L338.3,332.28A1.38,1.38,0,0,1,337.19,332.92ZM299,310.17a1.38,1.38,0,0,1-1.11-.64,2.84,2.84,0,0,1,0-3.09l26.17-36.59a1.28,1.28,0,0,1,2.21,0,2.84,2.84,0,0,1,0,3.09l-26.17,36.59A1.35,1.35,0,0,1,299,310.17ZM198.78,262.09c-.79,0-1.46-.82-1.55-1.94a2.12,2.12,0,0,1,1.37-2.41c.63-.1,15.5-2.44,19.32-2.73.87-.07,1.6.86,1.65,2.06s-.62,2.24-1.48,2.3c-3.73.29-19,2.69-19.14,2.71Zm-.89-41.88a1.19,1.19,0,0,1-.61-.18,2.53,2.53,0,0,1-.82-2.86l4.35-14.26a1.68,1.68,0,0,1,1.35-1.33L223.9,200a1.41,1.41,0,0,1,1.21.67l5.47,7.92a2.84,2.84,0,0,1,0,3.09,1.27,1.27,0,0,1-2.21-.06l-5-7.2-20,1.46-4,13A1.64,1.64,0,0,1,197.89,220.21Z"/><path class="cls-3" d="M269.83,289.48c-2.2,0-4-2.51-4-5.58v-6.33c0-3.07,1.79-5.57,4-5.57s4,2.5,4,5.57v6.33C273.82,287,272,289.48,269.83,289.48Zm0-15.73c-1.51,0-2.74,1.71-2.74,3.82v6.33c0,2.11,1.23,3.83,2.74,3.83s2.74-1.72,2.74-3.83v-6.33C272.57,275.46,271.34,273.75,269.83,273.75Z"/><path class="cls-3" d="M269.83,316.09c-2.2,0-4-2.51-4-5.58v-6.33c0-3.07,1.79-5.57,4-5.57s4,2.5,4,5.57v6.33C273.82,313.58,272,316.09,269.83,316.09Zm0-15.73c-1.51,0-2.74,1.71-2.74,3.82v6.33c0,2.11,1.23,3.83,2.74,3.83s2.74-1.72,2.74-3.83v-6.33C272.57,302.07,271.34,300.36,269.83,300.36Z"/><path class="cls-3" d="M269.83,342.7c-2.2,0-4-2.5-4-5.58v-6.33c0-3.07,1.79-5.57,4-5.57s4,2.5,4,5.57v6.33C273.82,340.2,272,342.7,269.83,342.7Zm0-15.73c-1.51,0-2.74,1.71-2.74,3.82v6.33c0,2.11,1.23,3.83,2.74,3.83s2.74-1.72,2.74-3.83v-6.33C272.57,328.68,271.34,327,269.83,327Z"/><path class="cls-3" d="M244.06,339.39H244c-4.7-1-13.44-2.84-18.84-17.58a1.05,1.05,0,0,1,.27-1.18c.31-.21.68-.05.84.38,4.71,12.87,11.72,15.34,17.92,16.65a.89.89,0,0,1,.52,1C244.63,339.08,244.36,339.39,244.06,339.39Z"/><path class="cls-3" d="M221.93,265.68h-.12a.9.9,0,0,1-.5-1c2.82-21.2,11-32.18,25-33.55,15.57-1.53,28.68-3.93,39-7.13.35-.12.67.19.75.66a.94.94,0,0,1-.48,1.05c-10.35,3.22-23.53,5.63-39.16,7.16-13.35,1.31-21.16,11.82-23.86,32.13C222.49,265.39,222.22,265.68,221.93,265.68Z"/><path class="cls-3" d="M327.29,215.67a.54.54,0,0,1-.43-.24c-1.71-2.24-4.4-3.13-8.19-2.78h0c-.33,0-.6-.35-.62-.82a.82.82,0,0,1,.58-.93c4.19-.43,7.15.65,9.12,3.25a1.1,1.1,0,0,1,0,1.23A.54.54,0,0,1,327.29,215.67Z"/><path class="cls-4" d="M295.07,366.63c-2.52,0-5.13-1.42-7.35-4.05a22.44,22.44,0,0,1-4.92-14.13V270.22c0-6.87,3.36-11.75,8.18-11.89,26.34-.77,52.81-9,78.68-24.41h0c3.38-2,6.8-1.8,9.37.58,2.29,2.13,3.55,5.67,3.55,10v65.9c0,6.31-2.77,12.77-6.9,16.07-25.7,20.49-52.32,34-79.12,40A6.25,6.25,0,0,1,295.07,366.63Zm75.08-131.1h0c-26,15.51-52.64,23.77-79.15,24.54-4.16.12-6.95,4.2-6.95,10.15v78.23a20.29,20.29,0,0,0,4.48,12.79c2.38,2.83,5.23,4.13,7.83,3.49,26.65-6,53.13-19.43,78.7-39.81,3.69-3,6.27-8.94,6.27-14.56v-65.9c0-3.69-1.06-6.71-3-8.5C376.12,233.91,373.15,233.74,370.15,235.53Z"/><path class="cls-5" d="M197.89,218.9a.55.55,0,0,1-.24-.07,1,1,0,0,1-.33-1.15l4.35-14.26a.68.68,0,0,1,.54-.53L224,201.31a.59.59,0,0,1,.48.27l5.47,7.92a1.16,1.16,0,0,1,0,1.24.52.52,0,0,1-.89,0l-5.27-7.63-21.07,1.53-4.19,13.76A.67.67,0,0,1,197.89,218.9Z"/><path class="cls-5" d="M198.78,260.78c-.32,0-.59-.33-.62-.78s.21-.91.55-1c.63-.1,15.47-2.43,19.26-2.72h0c.33,0,.6.36.62.82s-.24.9-.59.92c-3.76.29-19,2.69-19.19,2.71Z"/><path d="M294.9,353.88a.53.53,0,0,1-.44-.26,1.12,1.12,0,0,1,0-1.24l74.26-103.85a.52.52,0,0,1,.89,0,1.1,1.1,0,0,1,0,1.23L295.34,353.62A.53.53,0,0,1,294.9,353.88Z"/><path d="M337.19,331.61a.58.58,0,0,1-.45-.26,1.16,1.16,0,0,1,0-1.24L366.87,288a.52.52,0,0,1,.89,0,1.12,1.12,0,0,1,0,1.24l-30.13,42.13A.55.55,0,0,1,337.19,331.61Z"/><path d="M299,308.86a.53.53,0,0,1-.44-.26,1.1,1.1,0,0,1,0-1.23l26.16-36.59a.52.52,0,0,1,.89,0,1.16,1.16,0,0,1,0,1.24L299.48,308.6A.53.53,0,0,1,299,308.86Z"/><path class="cls-6" d="M284.2,366.63a.45.45,0,0,1-.31-.11L251.66,341c-3.61-3.18-5.93-8.81-5.93-14.36V255.52c0-6.27,3.08-10.75,7.49-10.88a135.48,135.48,0,0,0,39.29-7.21c.32-.1.67.17.75.64a.94.94,0,0,1-.46,1.06,136.54,136.54,0,0,1-39.56,7.26c-3.74.11-6.26,3.78-6.26,9.13v71.07c0,4.89,2.14,10.06,5.32,12.85L284.5,365a1.1,1.1,0,0,1,.24,1.2A.61.61,0,0,1,284.2,366.63Z"/><path class="cls-6" d="M366.64,229.5c-.33-.05-33.38-5.79-36.68-6.39a6.92,6.92,0,0,0-4.81,1c-.32.18-.68,0-.81-.47a1,1,0,0,1,.32-1.14,7.88,7.88,0,0,1,5.46-1.1c3.29.6,36.34,6.33,36.68,6.39a.86.86,0,0,1,.54,1C367.3,229.18,367,229.54,366.64,229.5Z"/><path class="cls-6" d="M232.22,314.82l-.39,0c-13-1.28-44.44-6.73-56.27-29.34a1.28,1.28,0,0,1-.12-.52V252.25a.94.94,0,0,1,.41-.82.53.53,0,0,1,.69.25c.12.19,12.21,19,55.7,20.25,2.92.09,5.21,3.31,5.21,7.36v28.16a9,9,0,0,1-1.68,5.41A4.52,4.52,0,0,1,232.22,314.82Zm-55.53-30.18c11.61,21.83,42.47,27.15,55.23,28.42a3.38,3.38,0,0,0,3-1.49,6.72,6.72,0,0,0,1.28-4.12V279.29c0-3.08-1.75-5.55-4-5.61-37.43-1.1-51.73-14.74-55.53-19.37Z"/><path class="cls-6" d="M304.85,244.74a2.66,2.66,0,0,1-2.17-1.29c-2.83-4.18-6.74-10.84-11.27-18.56-13.49-23-33.86-57.73-48.12-63.45-8.71-3.49-17.5-2-24.72,4.22-7.7,6.61-13.17,18.17-15,31.74-.07.47-.38.76-.74.69a.9.9,0,0,1-.49-1c1.92-14,7.61-26,15.6-32.9,7.53-6.48,16.66-8,25.73-4.41,14.62,5.87,34.34,39.48,48.74,64,4.51,7.69,8.4,14.33,11.21,18.47a1.44,1.44,0,0,0,1.8.63l17.34-7.13a.89.89,0,0,0,.46-.64,1.43,1.43,0,0,0-.09-1c-46.42-90.68-68.87-83-78.47-79.71-.33.11-.67-.17-.75-.64a.91.91,0,0,1,.46-1.05c16.26-5.59,38.44-.37,79.77,80.38a3.83,3.83,0,0,1,.27,2.55,2.47,2.47,0,0,1-1.3,1.75l-17.33,7.13A2.41,2.41,0,0,1,304.85,244.74Z"/><path class="cls-6" d="M222.14,197H222a.9.9,0,0,1-.52-1c2.13-17.59,8-29.07,16.51-32.34.34-.14.68.15.77.61a1,1,0,0,1-.44,1.08c-8,3.08-13.56,14.07-15.6,30.94C222.7,196.7,222.44,197,222.14,197Z"/><path class="cls-6" d="M189.05,257.92a.63.63,0,0,1-.56-.48,1.06,1.06,0,0,1,.28-1.17c2.07-1.45,8.18-4,9.92-4.68V226.34c-7,2-22.68,9.83-22,18.32a.84.84,0,0,1-.55,1c-.35.06-.66-.29-.69-.77-.88-10.9,18.26-19.08,23.75-20.43a.53.53,0,0,1,.51.2,1,1,0,0,1,.23.67v27a.88.88,0,0,1-.46.84c-.07,0-7.88,3.16-10.15,4.74A.43.43,0,0,1,189.05,257.92Z"/><path class="cls-6" d="M229.36,233.33c-.35,0-.63-.39-.63-.87V217.7a.85.85,0,0,1,.52-.86c17.85-4.35,43.41-1.71,50.82-.8.34,0,.6.47.57,1s-.34.82-.68.79c-7.3-.9-32.3-3.48-50,.66v14C230,232.94,229.7,233.33,229.36,233.33Z"/><path class="cls-7" d="M108.54,449.63c.39.23-1.09-1.47-1.37-1.95a33.9,33.9,0,0,0-2.91-3.63l-1.94-2.35-.28-.3-.29-.34c-1.14-1.24-2.11-2.47-3.13-3.65-.18-.11-.06,0-.06.06v-.06h.06c-.8-1.11-1.6-2.28-.52-1.23,1.26,1.12.68.3-1.25-1.87a63.21,63.21,0,0,1-4.45-5.46c-2.85-4.05-1.66-2.94-2.85-5.05l-.52-.64c-1.08-1.88-3.65-5.7-2.79-5.17l.52.83.11-.12c-.29-.88.39-.41.68-.53s-.74-1.94-1.59-3.58h.17c-.17-.53-.46-1.06-3-4.58-.11-.17-.23-.17-.29-.29-1.76-3.23-3.93-7-5.87-10.68l-3.65-6.57L72,390.18c-1.2-1.41-2.39-5.05-3.48-6.92-.79-1.71-1.59-3.65-2.39-5.11-2.46-5.22-5.08-10.15-6.73-16-1-3.05-1.77-5.52-2.74-8.63l-.11-.18h0l.11.18c-.34-1.7-1.25-4.05-2-6.33-.56-2.35-1.08-4.82-1.65-7.34-1.88-8.74-4-18-4.73-27.23a162.93,162.93,0,0,1-1.83-25.76c-.34-5.23.06-10.86.23-16.84l-.11.23v-.06l.11-.17c.35-7.22.52-14.44,1.88-21.48.35-2.47.92-5.4,1.26-8a16.52,16.52,0,0,1,.68-3.58,86.76,86.76,0,0,1,1.94-8.74c.29-1.24.74-3,1.09-4.58.39-1.41.68-2.53,1-3.87l.11-.53a.45.45,0,0,0,.06-.3c.85-2.63,1.43-5.92,2.57-8.74l.05-.12c1.32-3.57,2.57-7.39,3.88-11,.35-1,.74-2.17,1.2-3.28l.23-.71.28-.94a156.36,156.36,0,0,1,7-15.37h0c-.12.11-.17.29,0,.11a10.83,10.83,0,0,0,.57-1.17,34.24,34.24,0,0,0,1.71-4.05l.8-1.64c1.94-3.87,4.1-7,6.15-10.39h0l1.43-2.52c3.37-6.51,7.81-12.38,12.15-18.19.74-1,1.48-2.06,1.65-2.18a8.24,8.24,0,0,0,1.49-1.93l2-2.93c2.23-2.76,4.8-5.11,7.3-8.16l6.85-7.69,1.31-1.47a55.6,55.6,0,0,1,7.18-6.92c1.83-1.82,3.71-3.64,6-5.75,4.78-4.64,10.77-8.63,16.08-12.5,5.81-4.7,11.86-7.92,18.36-11.68h.11A20.76,20.76,0,0,0,165,77.05l.68-.41c0-.06,0-.18.63-.7,5-3.59,6.33-4.11,3.54-3.59,1.31-.87,3.48-1.81,3.93-2.28l2.34-1.23.92-.65c5.41-2.46,10.37-5.4,16-7,5.64-2,11.57-3.87,17.28-5.87,6.1-1.52,11.74-2.88,17.79-4.22a45.39,45.39,0,0,1,8.09-1.35l1.83-.18c.52-.12,1.14-.18,1.54-.23l2-.36,2.51-.41c2-.12,4.34-.58,6.56-.94,1.65-.17,3.59-.17,5.47-.35H257c1.76-.06,3.65-.12,5.41-.12a17.06,17.06,0,0,0,3.83-.29h.85c1.37,0,3.88-.12,4.74,0h2.39c3-.12,6.84.23,10.27.35l5.36.36c2.62.29,5.75,0,8.32.7l4.51.58c1.82.36,3.48.53,5.3.89,1.42.29,3,.47,4.45.76a12.91,12.91,0,0,0,4.33.47l-.74-.06c.23,0,.45.06.74.06,4.33,1,8.16,2.11,12.2,3.29.86.23,1.55.34,2.29.52,3.19.94,5.87,1.41,8,1.94.92.23,1.95.59,3.37.94,1.37.18,2.74.35,2.11-.35-.23-.3.68,0,1.82.29s3.54,1,2.86.53l-.29-.12h.06l.23.12,1.65.41c.68.11,1.2.11.17-.35-1.6-.77-.52-.53-.74-.88l1-.42-1.49-.7c-.68-.53-.11-.53.35-.64.23-.06.91.11.68-.18-1.14-.65-.23-.53,3.77.88a33.83,33.83,0,0,1,4.5,1.41c.17,0,.12-.06-.06-.18l.18.12-.12.06c1.6.59,2.57,1,3.71,1.35a36.69,36.69,0,0,1,4.84,2.58l.12.24.57.17a6.34,6.34,0,0,0,2.68,1.29,16.73,16.73,0,0,1,3.13,1.41,29.42,29.42,0,0,0,3.71,1.76l-.11-.17.11.06v.11a33.79,33.79,0,0,1,5,2.46L386.19,71c5,3,9,5.92,14.31,9,1.54.64,3.48,2.46,5.3,3.81l.8.7a42.39,42.39,0,0,1,6.62,5.29l1.48,1.11c2.4,1.71,5.14,3.41,7.3,5.81,4.56,4.34,9.35,8.92,13.91,13.15l1.32,1.34c3.87,4.52,7.81,8.93,11.74,13.5h0c.57.59,1.26,1.41,1.77,1.94l.11.23a54.76,54.76,0,0,1,7.47,9.92h-.17a33.4,33.4,0,0,1,2.46,3.35,21.48,21.48,0,0,1,2.56,3.52,26.05,26.05,0,0,0,3.48,4.93c1,1.46,2.68,4.63,4.16,7.15l.35.95a27.32,27.32,0,0,0,2.28,4h0a76.62,76.62,0,0,1,6.84,12.62l2.62,6,1.15,2.53.45,1c.74,1.65,1.37,3.35,2.28,5.05a33.12,33.12,0,0,1,1.37,3.4c.68,1.82,1.26,3.7,1.82,5.69,1.94,5.64,4,11.22,5.42,16.91.91,3.58,1.65,7,2.51,10.56l.17.94c.46,2.52,1.2,5.22,1.82,7.86.35,1.7.58,3.76.74,5.4l.47,3.64c.85,4.46,1.25,8.68,1.76,12.91.23,1.59.17,3.29.29,5,.05.23.11.12.11,0l.06.12-.17-.12c.11,2.05.22,4.52.17,5.92.46,7.63.85,15.2,0,22.72-.06,1.93-.23,4.28-.34,6.51a38.71,38.71,0,0,1-.12,4.46c-.51,5.28-1.54,11.08-2.34,16.49a153.5,153.5,0,0,1-4,19.54l-.11.35-.06.41c-1.14,3.87-1.77,8-3.25,11.91-2.11,6-4.28,12.21-6.38,18.31a14.56,14.56,0,0,1-1.49,3.17c-2.22,5-4.51,9.86-6.67,14.61a53.67,53.67,0,0,1-4.91,9.16c-4.16,6-7.3,13.78-12.2,19.59-1.08,1.42-2.17,3-3.08,4-1.14,1.59-2.22,3.12-3.3,4.64-.06.12.05-.06.17-.06h-.06c-.06,0-.11,0-.11.06L454,423.74a47.24,47.24,0,0,1-5.53,7.05c0-.3,0-.3-.34,0l-.69.7c-3.07,3.4-6,6.87-9.12,10.5-3.65,4.29-8.21,7.64-12.43,11.86-3,2.76-5.82,5.4-8.78,7.81l-16.66,12.61a10,10,0,0,1-2,1.29l-3.19,1.88c-2.57,1.58-5.31,3.17-7.87,4.75.11-.18.17-.23,0-.18h0c-1.6.71-3.82,2.35-5.59,3.41s-3.82,1.82-6.1,3c-5.42,2.58-10.66,5-15.92,7.57-1.88.59-3.59,1.29-5.47,1.88a11.71,11.71,0,0,0-2.9.94,149.74,149.74,0,0,1-22.59,6.81c-4.22.93-8.55,2.16-13,2.87l-13.28,1.94a10.39,10.39,0,0,0-1.55.29h-.16c-3.48.41-7.36.53-11.81.82l-1.77.12a91.08,91.08,0,0,0-10.26.29c-5.31.41-10.72-.41-15.91-.41a12.66,12.66,0,0,0-1.32,0c-2.73-.18-5.41-.36-8.27-.53a42.65,42.65,0,0,1-5.3-.95c-8.38-1.23-16.87-2.23-25-4.69a41.61,41.61,0,0,0-5.3-1.53l-5.31-1.29-.51-.05-.4-.12c-3.48-1.29-7-2.7-10.32-3.93h.05c-1.76-.7-3.47-1.17-5.18-1.82A38.54,38.54,0,0,1,187.4,494L171,486.18c-2.68-1.11-5-2.93-7.36-4.46-7.13-4.63-13.4-7.45-17.16-9.92-3.54-2.52-5.47-3.63-5.59-3.34s-.57,0-1.82-.88c-2.8-1.88-2.68-1.53-2.4-1.06.46.71-.8-.11-3.31-1.93l-.06.17c-.34.24.18,1.29-2.68-.41-.34-.23-.56-.29-.34-.06,2.4,2.65-1.31.65-.34,2.12.34.47-2-1.12-1.94-1,1.94,1.65,1.14,1.42.91,1.65-.28,0-1.08-.23,1.15,1.76a23.66,23.66,0,0,0,2.79,3.17c.51.53.45.53.11.47-1.31-.47-.85.35.23,1.64l-.17.35c-.8,0,1.88,2.12,5.53,4.94L142,482a22.92,22.92,0,0,0,2.28,1.58l4.11,2.58c4,2.47,8,4.93,11.91,7.39,3.94,2.82,8.62,4.41,12.89,6.7,6.1,3,12.26,6.28,18.82,8.45a12.93,12.93,0,0,1,1.43.53c4.33,1.58,8.61,3.16,12.88,4.75l13.24,3.46c2.5.64,4.73,1.23,7,1.94,8.27,1.7,16.71,2.81,25.26,4.11.4,0,0-.12.23-.12l.28.06.06.06c4.91.29,10.21.52,15.28.82,8.33,1.05,17.05-.36,25.61-.48,2.91,0,6.1-.46,9.06-.76,5.42-.52,11.64-1.58,17.4-2.34,5.13-1.29,10.43-2.53,15.51-3.76,1.08-.23,2.39-.59,3.53-.94.17-.12-.05,0-.05,0l.39-.18,2.91-.52v.18a13.27,13.27,0,0,0-2.79.64l-1.94.59a37,37,0,0,0-4.68,1.34c-.22.12-.22.12,0,.12a114.44,114.44,0,0,1-11.17,3.35c-.63.18-1.6.35-1.83.41-2.17.82-8.44,1.64-12.37,2.4l-1.88.36v.17l-.86.12a35.66,35.66,0,0,0-6,.94c-1.88.53-3.08.17-4.73.35-9.12.12-18.3,1.41-27.37.53-1.71-.18-3.14-.18-4.62-.29l-.85-.06c-1.55-.06-3.37-.18-5-.36l-.86-.17a79,79,0,0,1-10.66-1.06l-1.71-.29c-.68-.06-.79,0-.29,0a36.77,36.77,0,0,1-4.67-.59l-2.74-.41c-7.29-.82-14-3.23-21.55-4.81-1.88-.41-3.37-.82-3.31-.59-.68-.12-.45,0-1.59-.12-.23-.11-.18-.11-.35-.11a8,8,0,0,0,1.94.23c-1.25-.23-2.33-.35-4.68-.93l-.17-.12-.45-.18-.46-.12c-2-.7-3-1-1.82-.41a37.56,37.56,0,0,1-3.82-1.11l-3.54-1.24a40.23,40.23,0,0,0-4.62-1.7h-.11c.4,0-.17-.23-.74-.47-1.77-.64-3.43-1.17-5.36-1.88A26.05,26.05,0,0,0,181.7,509c-1.77-.29-6.27-2.64-10-4.52L169,503.2c-1.94-.88-3.71-1.76-5.54-2.64-4.11-2.17-7.7-4.76-11.63-6.92-1.08-.59-2.74-1.59-4.11-2.41-3.07-2.17-6.72-4.05-9.92-6.75l-.8-.65-1.48-1.11h0c-5.25-4.28-10.66-8.1-16.08-12.74-1.08-1-2.4-2.23-3.54-3.22l0-.12a22.73,22.73,0,0,0-4.74-4c-.85-.47-2.34-1.52-2.56-1.35-.12.47-2.23-1.06-5.31-3.52-1.48-1.11-1.93-1.41,0,.53-1.71-.77-1.71-.12-1.25,1,.17.52.06.76-1.2-.18-.68-.47-1-.65-.91-.35l1.48,2.88.69.7h0l-.69-.7c-.85-.48-1.14-.42-1.2-.13.8,1.12,1.94,2.59,1.48,2.59s2.86,3.11,3.48,3.93c2,1.93,4,3.87,5.94,5.69,4.5,4.81,9.75,8.57,14.93,12.68,5.25,3.93,10.21,8.33,15.86,11.5,1.25.88,2.74,1.87,3.82,2.58l6,3.7h.17c2.62,1.47,5.07,3.34,7.75,4.46.57.35,1.43.82,2.62,1.4l17.34,8.57,18.08,6.75a17.49,17.49,0,0,0,2.74,1.12c12.09,3.29,23.61,7.22,36.09,8.56,1.26.3,2.17.48,2.74.59.06.12,1.26.23,1.88.41h.06l7,1.06a5.91,5.91,0,0,0-2.17-.35,8.92,8.92,0,0,1,2.17.35c12.15.82,24.07,2.41,36.56,1.46,2.05-.05,4.27-.17,6.21-.17h.86c2-.12,4.22-.12,6.33-.24,1.88-.23,3.71-.52,5.58-.82l.23-.05H304l13.11-1.76a41.86,41.86,0,0,0,7.13-1.18c4.22-.94,8-1.76,11.69-2.58-1.54.64-1.6,1.11-1.6,1.35.17.17-3.19,1-2.9,1.17-.86.53,1.3.41,1.19.76s.17.36-.8.82c-.62.18-.45.18.23.18h-.23v-.18l-3,1.06c-2.62.77-2,.71-1.71.77l1.88.29v.17c-2.05.59-4.22,1.36-1,.71l1.14-.3c-1,.71,1.77.12,2.29.3l.17,1c2.9-.52,3-.35,3.25-.12h0c-.8.3-.74.42,0,.42,2.05-.12.11.82,2.39.64,1.37-.06,0,.53,4.11-.41a55.09,55.09,0,0,0,7.24-2.05,44.37,44.37,0,0,0,4.84-1.82h-.11c.29.06-.57.53-1.6,1-4,1.35-.62.29-.91.58l1.88-.7c5.19-1.82,11.24-3.87,16.72-5.81,3.87-1,7.92-3.11,12.2-5.16,2.28-.94,4.56-2.06,6.9-3.29l1.71-.82a66.49,66.49,0,0,0,7.7-3.76c1.59-1,3.3-1.93,4.73-2.82l2.68-1.64c1.71-.93,3.3-1.88,5.25-3,3.08-1.82,3.25-2.17,1.36-1.18-4.39,2.59-8.66,5.11-13.34,7.93-.8.41-1.65,1.06-2.57,1.47h-.17l-.34.17c-.68.29-1.71.7-2.62,1.12,1.31-.77,3-1.35,4.22-2.23l.62-.42L411.51,510l.62-.35c.17-.24.29-.24.35-.24a100.84,100.84,0,0,0,11.34-7.45l1.89-1.41,9.58-7.33c1.65-1.12,3-2.18,4.16-3l.51-.23c1.26-1,2.57-2.29,3.94-3.52,1.14-1.18,2.45-2.29,3.53-3.41l1.6-1.53,1.6-1.52c3.42-3.23,6.9-6.22,10.15-9.51L470.07,460h.12c2.33-2.47,4.9-5.46,7.3-8.22,4.62-5.87,8.89-12,13.22-18.18,3.37-4.23,5.88-9,8.62-13.68l.06-.12h0l-.06.12c.91-1.35,2-3.29,3.19-5.22a53.37,53.37,0,0,1,3-5.29,34.55,34.55,0,0,0,2.91-5.69h-.11c0,.3-.12.53.11,0,2.63-5.51,5-10.62,7.41-15.84,4.23-8.51,6.44-17.84,9.7-26.53h0l.06-.29-.06.29.91-2.16c2.85-11.27,6.16-22.36,7.87-33.93l.11,0c0,.35.06.11.23,0-.11,1.18-.34,2.82-.57,4.35s-.63,3-1,5a28.12,28.12,0,0,0,1.09-5l2.05-14.15,1-7.56c1-6.4.85-13.5,1.48-19.66l.17-5.58a9.45,9.45,0,0,0,.12-2.23c.11-1.76-.12-3.69-.18-5.57l-.11-5.28-.12-1.29-.85-15.85-2.22-15.78c-.4-3.06-.86-6.87-1.2-9.69-.23-1-.4-2.16-.68-3.34-.8-3.58-1.71-7-2.46-10.57-1.42-6.16-2.34-12-5-18.25L526,194c-2.11-6.28-3.53-11.92-6.21-18.61-.51-1.23-1.2-2.87-1.89-4.28l-.45-1.06-.4-.88-.4-1.05c-1.65-3.7-3.48-7.69-5-11.27a101.56,101.56,0,0,0-7.13-13.44l-.39-.94-2-3.64-.11-.06c-.41-.87-1.09-2.16-1.54-3l-.58-1.06c-.17-.34-.39-.7-.62-1.11l-.35-.88c.35.59.35.41.12-.05-1.42-3.24-.62-2.59-1.2-4.35l.35-.35c-1.43-2.76-.18-1.7-1.43-4.17l.57.77c2.11,2.75,1.59,1.82,1,.7l.62.64-.45-.76-1.14-1.88.11.3c.86.93.4,0,1.37,1.23-.8-1.53-2.05-3.29-3.6-5.64-2.56-3.63-5.07-7.33-7.75-10.79-1.31-1.82-2.51-3.58-4-5.4l-1.42-1.59-1.49-1.81c-2.57-2.88-4.79-5.28-7.24-8-3.65-3.64-7.3-8.57-11.46-12.27l-.8-.82L458,75.59l-.17-.18-.63-.53h-.05a13.1,13.1,0,0,0-2.51-2.53l-3.25-3c-1.43-1.34-3.14-3-4.62-4.34a69.2,69.2,0,0,0-6.16-4.87l-4.68-3.58c-3.53-2.7-7.52-5.87-9.57-6.86l.85.64H427c-.17-.17-.4-.35-.68-.64-3.26-3.23-8-5.75-13.12-8.81l-6.39-3.58c-1.48-1.17-2.74-1.87-4.56-3.1a26.82,26.82,0,0,0-7-3.41c-.69-.29-1.2-.58-1.89-.88-8.21-3.87-16-8.45-24.86-11.21l-.11-.12c-2.74-1.11-5.65-2.05-8.33-3.05a93.7,93.7,0,0,0-12.09-4c-3.19-.95-6-1.65-8.67-2.35A43.69,43.69,0,0,0,335,8.22L327.63,6.4a56.73,56.73,0,0,0-7.48-1.53c-.17-.06-.22-.06-.22-.12-.29,0-.57-.17-.86-.17l-5.59-.82c-1.08-.24-2.68-.47-4.16-.71a.2.2,0,0,1-.17-.11L302.71,2l-3-.4c-7.64-.47-15.05-1-22.35-1.53-.86-.06-2-.06-3.08-.06-5.82.18-11.58.29-17.79.71-1.43,0-2.91.17-4.11.23l-4.1.18c-1.49.12-4.11.59-5.54.7-10.15,1.53-20.13,2.23-30.22,5.11l-4.16,1-1.15.34c-9.06,1.89-17.67,4.94-26.34,7.93a10.2,10.2,0,0,1-1,.47l-2.12.76-2.11.77-4,1.4h-.06c-5.42,2.59-10.49,4.93-16,7.45-2.68,1.12-5.25,2.53-7.93,3.88-5,2.64-10.6,6.22-15.67,9.15-.92.59-1.83,1.12-2.68,1.59-2.46,1.58-5.08,2.87-7.42,4.69-1.54,1.23-3.31,2.58-5,3.82-4,3-8.1,6.1-12.14,9-1.66,1.23-4,3.06-3.94,3.41l.34-.18-.34.18c-4.45,3.64-9.87,8.92-14.88,13.5A85.41,85.41,0,0,0,78.83,83l-1,.94c-5.08,5.87-10.27,11.73-15.4,17.66a6.08,6.08,0,0,0-1.37,1.58l-.06.06c0-.11.12-.23-.05-.06a9.47,9.47,0,0,1-.69,1c-4.39,6.1-8.72,12.14-13,18.25l-.63.87a39.61,39.61,0,0,0-2.45,4c-1,1.53-1.77,3.18-2.86,4.82-1.53,2.52-3.07,5.28-4.62,7.74-.51,1-1.19,2.12-1.53,3h0l-2.74,4.82-.23.17c-2.51,5.46-4.9,10.92-7.47,16.2l-.4,1c-1.14,2.47-2.17,4.88-3.3,7.4a2.51,2.51,0,0,1-.46.94l-.46,1.12c-.46.93-1,2.75-1.71,4.45l-6.33,18.61c-1.88,6.22-3.14,12.67-4.67,19L7,217.65c-3,11-3.65,22.42-5.58,33.57-.34,3.46-.12,6.92-.52,10.27L.7,263.72C.53,267.94.25,272.17.08,276c-.18,3.29,0,5.63,0,8.16v3.34c.28,5.11.56,10,.85,15.09.63,9.27,2.28,18.42,3.42,27.69a33.42,33.42,0,0,0,1.48,6.92l2.85,12c1.83,9,4.91,16.91,7.93,25.42.86,2.46,1.31,3.46,2.23,5.92-.12-1.23,1.37,2,1.59,1.76v.12a31.23,31.23,0,0,0,1.88,3.93c.63.3.86-.41,2.57,2.65a11.76,11.76,0,0,0,2.4,2.81v-.35h0v.35L27.9,393a6.54,6.54,0,0,0,.23.64,25.11,25.11,0,0,0,1.31,2.76c.46-.77,2.74,2.94,4.45,5,.86,1.12.74.36.57-.81-.57-1.53-.23-1.29.34-.18,1.49,2.76,1.49,2.11,1.14.7.74,1.18.69.18-.11-2a5,5,0,0,0-.23-.82c1.08,1.17-1.71-5.34-2.22-7.51C33,389.65,31.27,386,31,384.9l-.34-.53c-2.11-5-3.54-10.45-5.42-15.67l-.34-.94c-1.6-5.16-.74-3.87-.46-3.81.57.35,1,.29.12-3.88-.12-.53-.4-1.23-.69-2.34a9,9,0,0,1-.51-2.29l-.63-3c-.51-3.18-1.48-7.17-2.34-10.86a102.32,102.32,0,0,1-3.3-17.78c-1-3.17-1.66-9.15-2.34-14.56a45.09,45.09,0,0,1-.75-8,29,29,0,0,0-.22-4.33l-.63-16.2c.29-6.4.63-12.91.85-19.25.18-2.11.29-3.93.29-6.16.4-5.64,1.43-11.45,2.23-17.31l.45-2.47.23-1.35.74-4.87c.17-1.52.57-2.93.86-4.46l.45-1.94.4-1.29c1.43-5.63,2.74-11.2,4.11-16.78a69.21,69.21,0,0,1,2.62-8.21,2.86,2.86,0,0,1,.29-.71l.05-.17-.34.88-.05,2c.34,0-.18,1.82-.69,3.64-.63,2.87-.11,2.75.17,2.58s.69-1.29.06,1.82c-1.2,5.81-2.74,12.08-4.22,18.13-1.71,7.34-2.23,14.73-3.2,21.77h0a93.33,93.33,0,0,0-1.25,12.62c-.06,6.51-.23,13.32-.4,19.48v.88l.17,2.05c.17,1.48.23,3.06.35,4.29h0c.11.82.16,1.58.22,1l.17,1.53v.24c.06,1.29.23,2,.23,2.7l.17.94a20.32,20.32,0,0,0,1.37,5.28,12.61,12.61,0,0,0,.91,3.46A8.59,8.59,0,0,1,21,304c.45,3.17.45,1.41.74,2.29s.28,0,.56,1.59c.18,0,.35,1.34.58,2.17.05.23.05,0,.05-.12h0c0,.06-.05.06-.05.12.51,2.76.74,2.82,1,2.93s.29-.29.63,1.18c.06.58.12,1.17.23,1.87.4,1.76.34.36.51.12l0-.18v.06l0,.12c.23.94.69,3.87.92,3.81-.12-.81.05-.05.11.24v-.29h0c.46,1.7.68,2.11.34-.82.12-.13.12.11.29.82.4,2.81.57,2.64.74,2.93,1,2.11,2.17,6.63,3.08,6.92A8.33,8.33,0,0,0,32,332.44a6.29,6.29,0,0,1,.85,2.17c.69,1.82.46-.24.92.82l.45-.12c.12-.94.35-1.29.86-.23.17,0,.4.23-.12-2.06l.58,0c.22-.3.74.7.57-1.18l-.18-.94c0-1.06.29.59.63,1.82.74,2.06,1.14,2.76,1,.82l.29.88.17.24v-.24h0v.24a8.93,8.93,0,0,0,1.42,3.28c.29.71.63,1.3.91,2.11a19.82,19.82,0,0,0,1.6,2.82c.23.12.52,0,1.26,2.64l.4,1.77c.57,1.34.62.81.91,1l.06.47c1,2.93,2,5.87,3.07,8.92l.57,1.7c1,3,1.94,6,3.14,9.39a84.53,84.53,0,0,0,3.19,8c3.71,7.75,6.39,15.9,11,23.24,1.43,2.35,2.85,5,2.68,3.87-.17-.58.86.71,2.17,2.7,2.74,3.7,3.94,4.58,5,5.1a7.3,7.3,0,0,1,1.77,1.76c1.71,1.89,3.37,3.35,2.34,1.3h0a5.25,5.25,0,0,0,1.08,1.35c.17,0,.34,0,1.54,1.4,1,1.41,2.51,3.29,3.53,4.7,2.74,3.75,5.14,7.63,8.1,11.09,4.22,4.64,8,8.8,12.09,13.32A34.59,34.59,0,0,1,108.54,449.63ZM146.35,472c.28.12.45.47-.41-.24h.12l.23.12ZM309,536.47h0Zm131.38-47.06v0Zm-56.11-420-.45-.35c.33.24.45.29.79.53ZM415.1,90.49h0Zm-206,423.8h0ZM299.4,523h0l.23-.12-.23.12Zm96-4c0-.12.17-.12.23-.18h0ZM460.89,78.75l-.11-.17.28.29C461,78.75,461,78.75,460.89,78.75Zm-40-32.27h0c-.29-.17-.68-.47-1-.65A3.42,3.42,0,0,1,420.86,46.48ZM242.6,510.06Zm257.87-93h0C500.47,417.23,500.52,417.06,500.47,417.06ZM27.9,319.88h0v.17h0Zm450.5,68.89c-.17.47-.17.47-.4,1l.17-.53ZM179.3,508.66Zm33.76,20.48.4.12a.81.81,0,0,1-.34-.06Zm162.58-.59h.06c-.06,0-.06,0-.17.12Zm-347-139.31ZM179.7,509h0ZM525.56,356.5a1.16,1.16,0,0,1,.17-.53l-.17.41ZM319.59,8.1h0ZM13.25,314.42v-.18h0ZM175.54,508.6l-.28-.18.28.18Zm-35.75-19.42-.06-.12h.06C139.84,489.18,139.79,489.06,139.79,489.18Zm-25.72-19.6a1.26,1.26,0,0,0-.11-.3C114.07,469.4,114.12,469.58,114.07,469.58Zm59.65,42.54.11.12-.11-.06ZM127.07,482.9h0Zm39.57,22.71h0Zm9.53,8.33Zm-5.53-2.12h0Zm-8.16-8.74h0Zm29.71,13.79-.34-.11.11,0C192.13,516.81,192.13,516.81,192.19,516.87ZM429.07,54.93a1.07,1.07,0,0,0-.4-.36,6.27,6.27,0,0,1,.57.36ZM242,4.46ZM9.94,269v0Zm10-16.13h0l-.06.28.06.24a2.18,2.18,0,0,0-.17.71c.05-.36.05-.53.11-.95ZM172.8,65.73h0a.52.52,0,0,0,.29-.18Zm299.38,87.43a2.56,2.56,0,0,0-.46-.88c.35.53.52.88.75,1.23C472.36,153.4,472.24,153.22,472.18,153.16Zm3.08,2.35Zm-260,370.23c-.11-.06-.46-.12-.63-.18l.63.18h0ZM264.38,533h0Zm-5.87.88h.86c-.29,0-.35.12-.52.18Zm-53-523.38h0Zm92.21,521.21.17-.12h.06Zm188.86-413-.11-.12h.11Zm-479,213.6v.12l-.06-.12ZM111.1,112.85v0Zm12.78-61.79.05-.12-.17.17ZM81.22,84.62l.12-.12c-.23.36-.35.36-.63.71C80.88,85,81.05,84.86,81.22,84.62Zm-66,116.6h0ZM46.33,340l-.18-.41,0-.29A1.47,1.47,0,0,0,46.33,340ZM373.76,56.57h.11c.12,0,.17.12.29.12l0,.06v-.06h0ZM407,506.43v0Zm78.18-76.17.23-.36h0s.12,0-.17.24Zm-453.51-274h.06l-.06.17ZM155,74.53l.06-.06-.06.06ZM437.62,63.91a4.42,4.42,0,0,1-.62-.41h.17C437.28,63.61,437.51,63.73,437.62,63.91ZM42.45,141.43h0v0ZM25.22,241l.06-.11h0ZM411.91,81.16a3.66,3.66,0,0,0,.85.59,11,11,0,0,0-1.48-.94h.17Zm97.28,224.63h0v0ZM367.83,497.39h0Zm3.08,27.93.11-.05h0Zm153-310.54h0l0-.88h0C523.74,213.9,523.85,214.25,523.9,214.78ZM216.83,11.15v.12h0ZM406.38,482l-.06.05-.17.18h0Zm-29.2,13.61h0ZM124.27,53.93l-.39.18.39-.35S124.22,53.93,124.27,53.93ZM39.59,151.64l-.28.53h-.06A3.07,3.07,0,0,0,39.59,151.64Zm-8.66,16.55-.12.17ZM400.5,43l.06.11a.9.9,0,0,1-.4-.29A.94.94,0,0,0,400.5,43ZM198,47.18v-.06h0ZM494.59,177.57v-.06l.35,1Zm-105,331.26h0l.11-.06c.06,0-.22.18-.11.06l.29-.06-.29.06ZM505.77,166v.06a5.32,5.32,0,0,0-.4-1.29A9.41,9.41,0,0,1,505.77,166ZM360.3,28.17l-1.37-.47A11.87,11.87,0,0,0,360.3,28.17ZM53.91,127.87l-.29.47c.17-.29.23-.47.34-.53Zm29.42,9.45h0l.12-.18Zm433.5,132.62-.11.35V270C516.72,270.06,516.72,269.94,516.83,269.94ZM397.59,496.33a6.35,6.35,0,0,0-1,.53,4.17,4.17,0,0,1,1.08-.7C397.59,496.16,397.71,496.16,397.59,496.33Zm39.92-400,.11.11-.11-.11Zm61.7,276.39-.11.12.06-.12C499.16,372.87,499.21,372.75,499.21,372.75Zm4.16-6.4v0Zm-3.42,19h0l.12-.23Zm-54.29,74.47c.18-.23.52-.52.75-.82l-.52.7-.4.12-.34.3h0C445.33,460.07,445.44,459.89,445.66,459.83Zm0,3.76h0l-.17.11Zm-11.57,8.33c.11-.12.17-.29.4-.41-.17.12-.23.29-.4.41ZM476,430.43s0-.11-.11.18l-.06.18A.55.55,0,0,1,476,430.43Zm-7.7,11.22.06-.06h0Zm55.44-156.4v0ZM314.11,15.61l-.34-.06h.05ZM494.42,153.16c.06,0,.06,0,.12.06s-.06-.06-.06,0Zm-8.84-9.33v0Zm4.39,2.64v.06l.23.35Zm31.71,84.1h0l-.06-.06Zm-.51,48.87v-.11h0Zm-33-131-.06-.06.06.06Zm16.54,21.48a7.93,7.93,0,0,1-.69-1.7c.23.7.51,1.29.75,1.87Zm5.3,46.47-.06-.05Zm-12.09-43-.06-.24c0-.11,0,0,0-.11C497.84,173.11,497.9,173.23,497.9,173.35Zm-9.29-21.18c-.46-.89-.8-1.65-1.32-2.53l.35.59A9.91,9.91,0,0,1,488.61,152.17Zm-227-121.65h-.23a.68.68,0,0,1,.34-.06ZM395.08,52.29h.12v.05ZM365,34.39,364,34h.34ZM119.43,63.73Zm303,9a1.58,1.58,0,0,1-.63-.36A4.55,4.55,0,0,0,422.46,72.77Zm15.22,9.85.06.12-.12-.12Zm2.91,3.71.34.29a.48.48,0,0,1-.28-.29ZM426.73,74.18c.63.52,1.2.93,1.32,1s-.29-.12-.52-.23A8.77,8.77,0,0,0,426.73,74.18ZM407.35,55.1c0,.06,0,0,0,.06Zm7.52,2.12a1.25,1.25,0,0,1,.35.17l-.35-.11Zm31,31.63h0Zm-339.24-10,.06-.12C106.77,78.75,106.66,78.75,106.6,78.87ZM77.92,111.32a1.65,1.65,0,0,1-.23.3l.11-.18ZM128.1,84.15h0ZM96.16,103h0l-.11.06Zm11.52-6.28h0v0Zm15-32-.12.06.12-.12Zm-1.83,2.7.12-.06a.91.91,0,0,1-.17.12Zm-41.11,57,.17-.28Zm36-37.55h0a2.82,2.82,0,0,1,.51-.41,7.19,7.19,0,0,1-.74.7ZM295.86,20.6l-.68-.06h.68ZM251,20.19h.23l-.23.06Zm12.32,1.47h0Zm-13,1.23h0Zm-43.17,7.22h0Zm-1.83-.3c-.05.12-.05.12-.17.12h.12ZM111.9,83.27H112l.11-.12.06-.17.4-.36-.46.53Zm51.38-35.73h0ZM179.13,39h0ZM155.36,49.12h0Zm7.18-2.64.06-.17ZM162.25,44ZM130,75.94l-.29.12-.17.17Zm-17.91,5.57.11-.17,0,.17ZM135,58.62l.23-.11-.23.11Zm98-35.14h0ZM319,25h0ZM80,119h0ZM95.88,94.42l-.23.23h0Zm6.78-5.57a7.22,7.22,0,0,0,1-.76l-1.31,1.17C102.55,89.08,102.55,89,102.66,88.85Zm13.75-13.38h0v0ZM316.56,23.65c.63.06,1.2.18,1.82.18C317.88,23.83,317.36,23.71,316.56,23.65Zm-96.37,8h0Zm-24.64,4.93ZM134.14,74.47l-1.83,1.47a3.33,3.33,0,0,0-.56.29l.62-.47C133,75.23,133.63,74.88,134.14,74.47Zm-42.6,35.27c-.51.59-1,1.05-1.54,1.7A20.71,20.71,0,0,0,91.54,109.74ZM81.16,130.28l-.51.82.11-.24Zm29.48-53.35,0,.06.28-.23ZM329.39,23.48a3.64,3.64,0,0,1-.68-.18h.11c.06,0-.28-.12-.34-.12C328.88,23.3,328.88,23.3,329.39,23.48ZM297,27.17h0ZM109.45,76.82c-.06,0,.06-.06.06-.06h0ZM277.56,17.61h0ZM96.68,104.11c-.12.11-.18.28-.29.34ZM56.93,157.56l-.17.18Zm13.8-29.51.17-.41A.91.91,0,0,0,70.73,128.05ZM263.13,15.38h0Zm96.37,23.7.4.18v.06Zm-36.32-9.5h0Zm-12.95-.35h0ZM133.17,79.11c-.06,0,.06-.06.06-.06l-.17.06ZM130,81.75l-.12.11h0ZM65.48,152Zm-1.31-4.34-.11.11.11-.11.06-.24h0v.24C64.17,147.65,64.23,147.59,64.17,147.65Zm9.75-33.86s.18-.18.06,0Zm121.92-90,1.09-.41a6.9,6.9,0,0,0-.8.23l-.23.06ZM208,20h0ZM426.67,64.43v0Zm6.45,17.26-.06-.06h.12C433.06,81.63,433.06,81.63,433.12,81.69Zm-14.77-8.92-.06-.06h.06ZM323.06,29.93ZM155.58,61.68l.46-.41C155.86,61.44,155.64,61.56,155.58,61.68Zm-79.26,79.1c-.12.12-.17.29-.46.41C76.15,141.07,76.37,140.78,76.32,140.78Zm-9-8,.11-.17.12-.19h0l-.17.19-.11.29S67.36,132.74,67.31,132.8Zm.63-3.87.33-.53.06-.06-.39.59ZM69.71,124h0c.16-.24.33-.41.45-.59l-.12.06a.74.74,0,0,1-.33.53ZM446.12,96h0ZM421.55,75.23l-.12-.12h.12ZM408,66.43h0ZM271,29.93a2.44,2.44,0,0,0,.86-.12v.12Zm-14.71.3h0Zm-67.4,15a1.52,1.52,0,0,1-.64.29h0a.36.36,0,0,0,.35-.17C188.71,45.31,188.71,45.31,188.89,45.19Zm-52.52,36h0Zm-32.8,27.23a7.37,7.37,0,0,1-.85,1l.34-.48A1.92,1.92,0,0,0,103.57,108.39ZM52.88,172.76l.06,0-.17.23C52.88,172.88,52.88,172.88,52.88,172.76Zm-.11-12.85.11-.18h0ZM93,91.43ZM202.51,42.14ZM132.77,84h0ZM82,135.91l-.34.35h.11ZM42,198.29c0-.06-.06.06-.12.18a1.33,1.33,0,0,0,.23-.71A1.15,1.15,0,0,1,42,198.29Zm33.3-95.83h0v0ZM105,76.06h0ZM279.1,14.85Zm173.12,80.8Zm4,7.75-.17-.06.06.06Zm34.56,36,.11.18.06.06Zm24.46,139.25a.6.6,0,0,0,.06-.29v.12Zm-476-69.18a7.14,7.14,0,0,1,.28-1.41A6.51,6.51,0,0,0,39.31,209.5Zm-.17,9.56-.06.18.06-.18Zm-1.43,5.58a14.18,14.18,0,0,0-.4,1.64h0A14.58,14.58,0,0,1,37.71,224.64Zm23.95-94.83c.17-.06.12,0,.12-.06s.16-.24.22-.3a2.59,2.59,0,0,1-.22.36h-.12ZM90.23,90c-.11.06-.11.12-.29.24.18-.18.18-.12.29-.24Zm28.29-28.11c.28-.17.62-.41,1.31-.88h-.18C119.6,61.15,119,61.44,118.52,61.85Zm53.15-32.74.05-.12.45-.12C172,29,171.83,29,171.67,29.11ZM511.58,194.42a6.23,6.23,0,0,0,.29.82l-.11-.18A1.68,1.68,0,0,1,511.58,194.42Zm12,42.25v0Zm-1.71,66.77v.77a7.63,7.63,0,0,1-.17,1.29A12.36,12.36,0,0,0,521.85,303.44ZM468.53,444.52h0Zm42.55-124.41a.76.76,0,0,1-.06.36l.06-.42Zm1-94.89v.12l.11.35v-.23Zm-30.34-79.16v.12l-.17-.18C481.65,146.06,481.76,146.18,481.76,146.06Zm-19.67-30.63.06.06ZM380.15,49.3l-.35-.12h0ZM336,35.92h0ZM170.46,52.4l.29-.06c.12-.05,0,.06.12,0Zm-109,86.21.12-.17h0ZM116,63.73l-.17.18h0l-.17.18,0-.12.12-.06Zm42.53-29h.06c.06-.12.06-.12.18-.17ZM410.6,50.58l-.12,0h0Zm62.15,69.55.12.23v-.06Zm17.79,293.05v0Zm-88,90.2h0a.37.37,0,0,1,.17-.24ZM202.74,46.31c-.11,0,.23,0,.23,0l-.46.17.29-.17ZM32,248.05H31.9c.11-.18.11-.18.11-.29Zm14.26-78.57.12-.12h0Zm14.08-29.11.18-.23-.12.23C60.35,140.25,60.29,140.37,60.29,140.37Zm-4-6.63-.23.41Zm80.63-83.56h-.06l.23-.12ZM168.13,28.4Zm26.12-8.68.34-.12h0l-.4.12Zm52.68-6.4.8-.11c.17,0,.17,0,.23-.12C248.25,13.09,247.73,13.21,246.93,13.32ZM388.7,37.85l.17.06-.17-.06Zm65.64,52.23.11.12h0Zm17.5,17.19h0ZM499.21,391.7c-.17.36-.29.77-.45,1.12,0-.18.16-.59.16-.71Zm-13.45,28.23h0ZM461,454.32l-.06.11H461v-.11ZM457,461.13a2.53,2.53,0,0,0-.75.7C456.61,461.53,456.79,461.24,457,461.13Zm-32.85,24.59.05-.12h0Zm91.35-220.24.06-.06v.06Zm-8.72-55.57h0l.16.7C506.91,210.38,506.85,210.2,506.8,209.91Zm-21.22-56.4-.05-.11h.05Zm-32.44-43.77c-.4-.35-.63-.71-1-.94A5.65,5.65,0,0,1,453.14,109.74Zm-10.33-7.28v0Zm-119.29-66h0Zm-96.66,3.7-.34.11A1.4,1.4,0,0,0,226.86,40.2Zm-1.71,1h0Zm-22,5.28c-.17,0-.23,0-.29.11s.06-.11-.17-.11ZM138.42,83.86l-.11.06h0l.11-.06ZM29.84,237.19v0ZM51.74,138c0-.11.17-.17.17-.29h0ZM128,54.23l.12-.12H128Zm51.55-30.75.35-.18-.12.12Zm20.19-5.87c-.06.06.28,0,1-.12h-.06Zm111.83-4.35-.12,0h.06Zm214.12,286.9-.11.06v-.65C525.62,299.57,525.67,299.57,525.67,300.16Zm-26.23,97.65-.11.23v-.12ZM395.08,508.48h0ZM399,486.59l.29-.12h.16ZM512.27,281.26v.12h0ZM386.65,55.16h0ZM97.07,119.42v-.06C97.13,119.36,97.07,119.42,97.07,119.42Zm-67.4,169.3a4.31,4.31,0,0,0-.06-.82ZM77,98.41l-.11.12h0Zm397.18,9.69h0l-.34-.42A2,2,0,0,1,474.18,108.1Zm13.29,23.47v.12h0Zm41,162.78v0Zm-2.16,1.11,0-.53A2.05,2.05,0,0,1,526.36,295.46Zm-2.12,30.93h0v0ZM488.09,160.21h0ZM171.26,62.79h-.11l-.23.12ZM84.93,139.14a1.7,1.7,0,0,1-.12.29l.12-.29Zm-56,79.8v-.12s.06-.28.06-.34Zm14-46.18-.12.12.17-.35Zm-8.73-8.21.06-.07Zm1.15-9.92a4,4,0,0,0,.39-.88,6.12,6.12,0,0,1-.28.76ZM145.43,41.31l.17-.11h0Zm58.62-27.16.23-.06h0Zm52.06-3.59H256c-.23-.11.86-.11.17,0h-.06ZM400,41.08l.17.12H400Zm74.25,67,.05.05-.05-.05ZM382.42,515.52l.06,0ZM403,484.3h0l-.05.06ZM478,404.2h0ZM199.09,50.7c-.45.12-.91.24-1.42.41h0L199,50.7Zm-163,144.83c.05-.12.05-.29.17-.59-.12.47-.17.59-.29,1A1.18,1.18,0,0,1,36.12,195.53Zm10-42.72a1.89,1.89,0,0,1,.28-.64v.05C46.38,152.46,46.15,152.58,46.1,152.81Zm27-54.57a3.06,3.06,0,0,1-.46.64A7.77,7.77,0,0,0,73.13,98.24Zm60.33-52.46-.12.11h0ZM233.25,9.92l.11.12H233ZM282,5.58h0Zm81,19.66v-.12l.4.23C363.27,25.24,363.21,25.24,363,25.24ZM499,146l.8,1.23ZM403.64,506.66l-.06.06h0ZM380,500.74l.18-.06-.18.06Zm36-26.29c-.06,0-.06.05,0,0Zm51.9-51.29h0l0-.12C468,423.1,468,423.1,467.91,423.16Zm41.74-140.84v.06h0ZM432.72,97.89l-.11-.18.11.18ZM144,84.86l-.06.11h0Zm-36.95,28h0v-.18h0ZM64,177h0l.06-.18ZM36.29,191.54l.06-.35-.06.17Zm7.87-41.25v0Zm51.6-77.23-.17.12C95.65,73.18,95.65,73.18,95.76,73.06Zm33.13-22.18.86-.53C129.35,50.58,129.18,50.7,128.89,50.88Zm10-8.62-.11.11v-.11Zm24.86-13.15-.34.12Zm22.75-9.86h-.11l-.22.18ZM274.42,4.58c-2.05.23-3.88.41-5.13.7h0A27.5,27.5,0,0,0,274.42,4.58Zm82.06,18.6h0ZM478.4,113.79l-.06-.06c0-.12.06.06.06.06Zm51.09,128.57.06.29-.06-.05Zm1,1.11v-.17l.06.17S530.46,243.3,530.46,243.47Zm-5,88.55v0Zm-19.72,62.85v0h0v-.11c.16-.3.16-.42.33-.71l-.33.82Zm-57.32,79.4Zm-10.78,7h0a7.39,7.39,0,0,0,.92-.7h0l.11-.12-.11.12h0ZM405,507.19v.06h0Zm-28.05,16-.17.12h0Zm-12.32-24h0l-.17.12h0l.17-.12ZM498.81,357.37l.17-.58-.06.24ZM471.5,138c.06.24.22.42.22.65ZM434.94,99.64l-.11,0h.06ZM226.81,44l-.12,0h0ZM109.34,112a1.07,1.07,0,0,1,.39-.53A2.69,2.69,0,0,0,109.34,112ZM38.85,293.06l.06.23h-.06Zm-1.14,4.28v-1.23c0,.24,0,.24.06.35S37.71,297.17,37.71,297.34Zm-5.53,1.53v0Zm7.07-123.53v.06h0v-.06ZM22.94,187.49v-.18h0Zm-9.29,24.82h0Zm20.81-60c.17-.41.34-.82.51-1.35ZM76.15,93h0l0-.11ZM112.58,58.1l0,.06ZM236,8.27l-.23.06ZM339,18l.17.18-.39-.18a1.31,1.31,0,0,1-.46-.12C338.46,17.9,338.75,18,339,18Zm14.54,4.17Zm62.62,25.35H416c0-.3-.5-.71-1.53-1.23A16.19,16.19,0,0,0,416.13,47.54Zm44.08,39.08c.34.17.45.29.68.41A2.47,2.47,0,0,1,460.21,86.62ZM533.6,302.1l-.06.06v-.06ZM380.43,522.51a1.18,1.18,0,0,0-.63.23h0A1.18,1.18,0,0,1,380.43,522.51Zm-15.34-14.38Zm45.68-31.4.56-.23A1.64,1.64,0,0,1,410.77,476.73Zm91.92-133.09v0Zm7.81-80.92h-.11v-.17Zm-.45-2.87v-.18h0ZM292.21,42h0ZM105.28,114.08a2.83,2.83,0,0,1,.69-.47ZM10.62,306.15l-.11-.36C10.51,305.62,10.51,305.79,10.62,306.15Zm51.9-200,.11-.18h0ZM92.8,73.88h0Zm65.52-43.77-.06.06v0ZM258.23,3.23c-.35.12-.57.12,0,.18V3.29l-1,.06h.17a3.87,3.87,0,0,1,.86-.06Zm83,12.15h0ZM527.84,225.46v0Zm2,90.6v0Zm-7.59,31.69,0,.18v.29l-.06.35.06-.64v-.18Zm-14.19,43.78-.18.35c0-.18-.05,0-.05,0Zm-2.39,10.74Zm-4.57,6.28.12-.24h0Zm-85.7,91.66h0Zm-50.87,9.39h0Zm144.1-224.75h.05l-.05.11Zm-2.28-54.4v0Zm-33.93-84.86,0,.06-.11-.18ZM395.08,68.31l.12,0v.12h0Zm-3.82-2.41.17.12ZM299.63,42.66ZM208,51.11h0ZM39.94,270.82l-.06.53v-.47C39.88,271,39.94,270.82,39.94,270.82Zm-1.77,14.73v-.12h0ZM25.74,297.17v0ZM21.8,237.49v0Zm-9-16.2h0l0-.18.06-.23Zm-2,19V240a3.69,3.69,0,0,1,0,.71ZM9.48,293.88V294h0Zm7.7,54.34v0ZM11.82,344c.18.47.23.88.35,1.28s0,0-.12,0Zm-2.39-4.11h0l.05.06-.05-.06ZM67.82,98.53l.17-.12h0Zm56.06-47.06v-.06h.05Zm-1.2-.18c.11,0,.17-.06.17-.18v.12ZM160.14,29h0ZM209,10.56h0ZM336.18,13Zm27.37,512.35.68-.23ZM361,498.27c.18-.06.18-.06.23-.06h0Zm122.49-113.2.23-.64-.06.06A.89.89,0,0,0,483.47,385.07ZM329.62,45l.12.12h-.06Zm-10.44,1.53a3.26,3.26,0,0,1-.8-.12ZM59.26,190.66l.12-.12h0ZM42.1,300.22v0Zm25.44,93.83-.18-.41.18.41ZM4.35,250.22l.12-.35a2.07,2.07,0,0,0-.12.59Zm9.75-45.65.12-.18.11-.35A3.16,3.16,0,0,0,14.1,204.57ZM74.27,93a.38.38,0,0,1,.11-.17c.05-.06-.06.06.05,0Zm1.88-3.1h0v0ZM225.9,7.93s.28-.18.39-.18h.06ZM352,18.6c1.15.3,1.89.42,2.68.65a6.71,6.71,0,0,1-2.5-.65Zm74.37,35a1.07,1.07,0,0,1-.46-.24.62.62,0,0,1,.34.18ZM528.81,213.37s-.12-.06-.12,0C528.63,213.19,528.75,213.31,528.81,213.37Zm-4.62,131.39v0ZM363.38,531.66l-.11.12h0Zm-2.05-7.16c.05-.06,0,0,0-.06a.36.36,0,0,0,.34-.12Zm-14.54-3a4.06,4.06,0,0,1,1-.41A4.06,4.06,0,0,0,346.79,521.51Zm13.63-12.32h0Zm132.41-144.3.17-.47c-.17.59-.29.82-.46,1.52v-.12Zm.56-1.7.17-.36-.34.82ZM504,324.81h0v.06h0v0h0Zm-27.31-169.3-.06-.18v.12ZM435.63,103.4h0ZM405.69,79.05h0ZM264.38,40.67v-.12h.12ZM14.1,356.55,14,356.2c0,.18,0,.12.06.24C14,356.38,14.1,356.67,14.1,356.55ZM122.74,50.06l.05-.06c.06-.12.06,0,.23-.12ZM247.34,2.82l-.29.12V2.88Zm89.41,8.1h0Zm136,83.85.06.12Zm11.75,16.14h0Zm32,266.07.06-.18c0,.12,0,.12-.06.18ZM259.59,533.83h0ZM242,530h0Zm104.86-11.62h0ZM165.67,489.41l-.16-.18.11.06Zm122,29.69-.57.06c.06-.06-.11-.06-.11-.06Zm4.79-.82h0Zm11.12-.64h0ZM211.3,511H211l-.23-.06h0Zm69.62,5.92h0l.06.06h0Zm-7,.36h.17l-.06,0ZM145.15,480.37a8.39,8.39,0,0,1-.74-.7,4.2,4.2,0,0,0,.91.7l-.06.06Zm1.7.94h0Zm3.37,0h0l.17.06Zm52.69,20.13h0ZM364.58,56.86a2.49,2.49,0,0,1-.63-.29A1.82,1.82,0,0,0,364.58,56.86ZM25.91,311.78h-.06v-.18ZM20,253.86v-.12h0ZM16.84,212v0h0l-.06.18.06-.18Zm1.88,144.12v.3a9.5,9.5,0,0,0-.28-1.11A4.92,4.92,0,0,1,18.72,356.08ZM102.55,63.91l-.12.18V64Zm18-13.56.11-.17-.11.17Zm169.93-48h0ZM415.22,44.6h0l0,.18ZM531.37,326.92h0v0ZM347.87,534.71h0Zm-199.53-40.9V494h0c.06,0,0,0-.06-.17Zm181,29.75h0l-.34.18A1.64,1.64,0,0,0,329.39,523.56ZM167.67,488c.17.06.4.23.52.23a.4.4,0,0,1-.35-.11Zm65.58,21,.17.12h0ZM504.63,298.87a3.24,3.24,0,0,1,.12-1.12h0A8.78,8.78,0,0,1,504.63,298.87Zm2.74-35.09v0ZM263,42.43ZM45,244.71v-.53h.06A1.28,1.28,0,0,0,45,244.71Zm2.23,70.94v.06h0Zm21.44,75.06.17.29C68.79,390.83,68.74,390.83,68.68,390.71ZM53.57,370.05l0,.35,0-.35ZM34.06,321.64h0c.06.06,0,0,.06.23ZM6.29,229l.06-.12V229ZM48,122.36l.45-.53-.06.11A3,3,0,0,1,48,122.36ZM136.93,39h0ZM196.3,12.09c-.4.12-.69.23-1.2.41a3.12,3.12,0,0,1-.51.18C195.22,12.5,195.73,12.21,196.3,12.09ZM318.79,5.58h0ZM391.66,31v0Zm72.48,52.53-.11-.06c0-.06.11,0,.11,0l.06.06Zm40,61.38h0Zm13.11,27.81v0Zm4.45,13.38h0v0ZM406.83,510.65l-.34.24Zm-94.89,24.24-1.59.17h0Zm-21.09,1.17h0Zm-47.4-2.23-1-.17Zm-74-21.89h.17c.06,0,0,0,.06.18ZM298,527h0Zm44.42-9.16a12.86,12.86,0,0,1,1.48-.41c-.17,0-.51.24-.4.24A3.48,3.48,0,0,1,342.45,517.81Zm-1.08-1.41h0v0ZM176.74,500.68l-.23-.12c.05,0,.05,0-.06-.06C176.74,500.56,176.74,500.68,176.74,500.68ZM141.27,476h0Zm85.93,32.33.06.06-.17-.06h.11Zm90.21,2.53h0Zm5.83-2.53a.89.89,0,0,0-.58.3h-.34A1.68,1.68,0,0,1,323.24,508.36Zm43.1-14.55h0ZM505.08,281A5.86,5.86,0,0,1,505,280l.11-.7C505.14,279.8,505.08,280.44,505.08,281ZM424.57,98.18l-.06-.06.11.12ZM82.7,417.58v-.06c.12.24.41.47.35.35l.06.06Zm-60-211.66-.06.06c0-.06.11-.36.11-.42A.64.64,0,0,1,22.72,205.92ZM14,246.47l.06-.36a4,4,0,0,1-.17.76A1.17,1.17,0,0,0,14,246.47Zm.69-.83h0ZM172.29,20.25h0l-.17.17ZM200,10.56h0l.35-.11-.35.11c-.74.24-.74.24,0,.06v.12h0l-.11-.18Zm54.86-9.15h0Zm215.38,90.2c-.11-.18-.11-.18-.23-.18l.23.18ZM492.71,118l.17.24-.17-.18S492.65,118,492.71,118Zm22.75,50.71h0Zm10.32,188.07h0v0Zm-83,127.4-.34.23.34-.23Zm-30,23.82Zm-39.06,21.84-.12.05.12-.05Zm-93.47,7.51h0Zm22.87-14.91h0ZM132.94,469.17v.05L134,470h0Zm45.51,21.88.23.12h-.06Zm22.35,9.1.06.06-1.77-.65-.06-.06A18.48,18.48,0,0,0,200.8,500.15Zm300-181.74v0Zm3.94-32.16h0v0ZM310.4,49.12a3.08,3.08,0,0,0-.85-.18h.68ZM100,128.22l-.17.53h-.17A3.49,3.49,0,0,1,100,128.22ZM27.73,319.88a2,2,0,0,1-.11-.7l.11.7Zm-3.42,46.53h0l.06.36Zm3,10.91h0Zm-2.12,9.16-.17-.35.06.18ZM72.27,90.84l.45-.46-.11.11ZM89.2,73.3l.18-.12h0ZM123.08,46l.11-.12h.06ZM282.18.71h0ZM507.6,150.52Zm26.85,170.76v-.46h0ZM474.92,454.2l-.23.23.17-.23ZM340.23,532h0Zm-33.3,4.58h0ZM156.21,506.54l-.06-.11h0Zm162.58,16.67L319,523h0C318.85,523,318.85,523,318.79,523.21ZM230.11,519h0Zm-59-20.78a5.12,5.12,0,0,0-1.14-.35C170.41,497.92,170.92,498.21,171.09,498.21Zm-24.24-24.64c.75.58,1.49,1.05,2,1.4h-.06A10.07,10.07,0,0,1,146.85,473.57Zm15,7.91H162l.06.13v-.06l-.06-.07h-.16Zm.51.24h-.06l-.06-.11Zm104.07,30.4h0Zm8,1.12h0Zm83.14-16.08.23-.18h0Zm8.61-3.76.35-.23-.18.11ZM481.76,381l.12-.42.11-.05A.61.61,0,0,0,481.76,381ZM439.68,112.67l.12.18h-.06ZM313.14,50l-.51-.12h0l.45.12Zm-212,79.28v.17H101C101.18,129.28,101.18,129.4,101.18,129.28ZM62.74,191l-.11.24.11-.24c-.05,0-.05-.12-.05,0,.11-.12.05-.12.17-.23l-.12.23ZM51.4,226h0ZM45.58,290.3v-.47s0,.18.06.24Zm-7.24,44.19-.06-.12h.06ZM27.73,193.89l.17-.18h0Zm-11.8,46.83v.12c-.17,1-.34,2.34-.46,3.16s-.17,0-.11-.53C15.53,242.6,15.7,241.77,15.93,240.72Zm13,151.39.06.12.06.41ZM143,34h0ZM457.81,75.7h.06l-.06-.11ZM346.1,538.7l.17-.12h.23Zm-108-3.52-.06-.12h.06ZM104.2,465.82l-.11-.12c.11.12.17.12.28.29h-.06ZM179,502.67h0ZM448.23,431l-.11.06.11-.12V431l-.11.06Zm7.93-9.68v-.06l.34-.47h0ZM503.66,262v0ZM348.15,57.1l.06-.12Zm-17.39-4.28h0ZM103.92,126.29h0c.23-.36.62-.59.8-1ZM57.56,209.08c.11-.23.11-.4-.06-.05ZM85.38,417.46a1.28,1.28,0,0,1,.17.41.5.5,0,0,0-.22-.35ZM13.93,253.57v0Zm-6.9,88-.11-.18s0-.06,0,0ZM.93,262.72l.06-.17-.06.17Zm4.39-37.5v.24H5.26Zm15.57-51.46c-.34.94-.68,1.82-.85,2.35C20.26,175.4,20.55,174.64,20.89,173.76Zm476.44-50.53-.12-.11h0Zm.06,5.17h0a.65.65,0,0,0-.18-.35A.65.65,0,0,1,497.39,128.4Zm39.86,177h0v0Zm-65.18,152.4H472c.12,0,.23-.17.29-.24ZM333,531.78l-.39.11h.16l.23-.11,1-.29h0ZM146.06,490.17Zm66.38,12.91Zm253-356.37.29.35c-.06,0-.11-.06-.06,0ZM280,46.83h0ZM70.79,388.54h0l-.06,0S70.84,388.65,70.79,388.54Z"/><path class="cls-7" d="M443.67,486.77c1-.88,2.4-2.29,2.57-2.29a18.39,18.39,0,0,1-2.46,2.52l-2.28,2.06c-.57.59-1.25,1.11-.91.7a33.5,33.5,0,0,1,2.51-2.46Z"/><path class="cls-7" d="M473.55,265.71c-.11-.29-.17,1.42-.28,2a26.73,26.73,0,0,0-.29,3.75l-.29,2.53v.7c0,1.35-.17,2.58-.22,4,0,.06,0,0,0-.11v.11h0c-.11,1-.29,2.18-.4.94-.12-1.41-.23-.52-.35,1.76-.16,1.94-.05,3.87-.39,5.81-.69,3.94-.86,2.64-1.2,4.58l-.12.7c-.45,1.76-1,5.4-1.25,4.7l.17-.82h-.17c-.34.64-.46,0-.63-.18s-.74,1.58-1.19,3.05v-.05c-.23.34-.4.81-.91,4.39v.24c-.8,2.93-1.72,6.4-2.52,9.62-.57,2.23-1,3.7-1.65,5.93l-.57,2.29c0,1.34-1.37,4.1-1.77,5.92-.46,1.36-1.14,3.06-1.48,4.35-1.54,4.34-2.79,8.8-5.13,13.14-1.09,2.35-2.06,4.22-3.14,6.57l-.11.18h0l.11-.18c-.8,1.18-1.54,3.12-2.4,4.76s-2,3.46-3.24,5.34c-3.77,6.1-7.7,12.67-12.43,18.36A135.65,135.65,0,0,1,418.35,396c-2.74,3.17-6.16,6.28-9.46,9.5l.05-.06-.05.06h0c-4.22,3.93-8.39,8-13.12,11.27-1.66,1.17-3.54,2.47-5.19,3.87a26.45,26.45,0,0,1-2.45,1.71c-1.65,1.23-4,2.64-6,3.87-.86.53-2.06,1.23-3.09,1.93s-1.82,1.06-2.73,1.65l-.4.29h-.23c-2,1.06-4.16,2.7-6.39,3.58h-.17c-2.74,1.35-5.53,2.76-8.27,4a20.89,20.89,0,0,1-2.51,1.24l-.56.23-.75.35a120,120,0,0,1-12.55,4.81v.06c.06-.12.23-.18.06-.12a2.51,2.51,0,0,0-1,.3,18,18,0,0,0-3.3,1.29l-1.31.47c-3.31,1.12-6.28,1.52-9.41,2.35v.11h0l-2.17.59c-5.59,1.7-11.35,2.34-17.17,3.17a10.35,10.35,0,0,1-2.16.23,10.93,10.93,0,0,0-1.88.3l-2.85.46c-2.8.24-5.71.18-8.78.42l-8.22.41h-1.54a41.32,41.32,0,0,1-8-.24c-2.05-.17-4.16-.17-6.61-.23-5.36-.18-11.07-1.47-16.2-2.46-6.1-.71-11.29-2.41-17.22-4.05v-.12a19.73,19.73,0,0,0-3.65-.77l-.63-.17c0,.17,0,.17-.85,0-4.85-.83-5.82-1.35-4,.06a24.7,24.7,0,0,0-3.54-1.06l-2-.64-.92-.12c-4.44-1.88-9-3.12-13.11-5.52-4.34-2.17-8.84-4.52-13.23-6.75-4.28-2.82-8.39-5.34-12.66-8.1-2-1.11-3.48-2.7-5.36-4.1l-1.14-.88c-.34-.3-.75-.59-1-.88l-1.37-1-1.65-1.23c-1.2-1.06-2.85-2.18-4.22-3.29-1.08-.82-2.23-2-3.37-3l-.51-.59c-1-.94-2.23-2.05-3.19-3a10.4,10.4,0,0,0-2.34-2.17l-.29-.24-.22-.23c-.8-.82-2.34-2.23-2.74-2.82a11.28,11.28,0,0,0-1.43-1.4c-1.76-1.77-3.76-4.23-5.64-6.34l-2.91-3.29c-1.31-1.76-3.31-3.52-4.34-5.28l-2.22-3.17c-.91-1.12-1.76-2.35-2.62-3.52s-1.48-2.12-2.11-3.17a15,15,0,0,0-2.22-2.82l.39.47a1.38,1.38,0,0,1-.39-.47c-2-3.16-3.54-6-5.25-9.09a18.06,18.06,0,0,0-1-1.64,59.29,59.29,0,0,0-3.53-5.87,22.43,22.43,0,0,1-1.26-2.58c-.79-.89-1.48-1.76-1.54-1,0,.23-.4-.41-.85-1.24s-1.49-2.64-1.31-1.93v.23h0v-.23l-.86-1.29c-.34-.53-.51-.77-.23.18.52,1.34,0,.52,0,.81l-.85-.29.45,1.35c.12.59-.22.35-.57.17-.17-.17-.45-.7-.39-.34.22,1-.23.34-1.77-2.82a20.69,20.69,0,0,1-1.77-3.29c-.11-.23-.06-.06,0,0h0c-.63-1.41-1-2.29-1.37-3.05-.57-1.7-1-3.17-1.37-4.34v-.23l-.11-.47a7.66,7.66,0,0,0-.8-2.35,13.68,13.68,0,0,1-1-2.59,22.58,22.58,0,0,0-1.2-3.16v0h0a43.84,43.84,0,0,1-1.48-4.46l-.57-3.05c-1.19-4.7-1.88-8.75-3.19-13.68-.57-1.23-.68-3.34-1-5.28l-.06-.88a38.91,38.91,0,0,1-.85-6.92l-.23-1.59a35.79,35.79,0,0,1-1-7.51c-.17-5.28-.4-10.74-.57-15.85v-1.58c.23-4.93.51-9.8.74-14.79h0c.06-.7.12-1.52.12-2.17l0-.11a45.43,45.43,0,0,1,1.26-10.16v.12c.17-1.23.34-2.29.45-3.29.18-1.4.35-2.46.57-3.58a28.1,28.1,0,0,0,.8-4.93c.23-1.46,1-4.39,1.6-6.51l.29-.82a29.63,29.63,0,0,0,1-3.7h0a63.69,63.69,0,0,1,3.2-11.32l1.77-4.93.74-2.11.34-.88c.51-1.41,1-2.76,1.48-4.35a23.73,23.73,0,0,1,1.14-2.7c.69-1.4,1.37-2.87,2.06-4.34,2-4.4,4-8.8,6.33-12.85q2.31-3.87,4.44-7.57l.52-.7c1.14-1.59,2.22-3.7,3.36-5.64.74-1.11,1.77-2.4,2.51-3.52l1.77-2.4c2-2.94,4.16-5.7,6.22-8.34.74-1.05,1.71-2.05,2.68-3.17,0-.17,0,0-.12,0H141c1.08-1.17,2.33-2.63,3.24-3.4a96.16,96.16,0,0,1,12.55-13.08c1.2-1.12,2.56-2.35,3.88-3.59.74-.76,1.77-1.76,2.62-2.46,3.25-2.76,7.07-5.46,10.44-8.1a104.3,104.3,0,0,1,13.34-8.86l.28-.18.17-.17c2.8-1.59,5.54-3.58,8.56-5,4.51-2.17,9.29-4.46,13.91-6.75a12.79,12.79,0,0,1,2.57-.94c4.11-1.52,8.15-3,12.09-4.4a58.78,58.78,0,0,1,7.87-2.4c5.82-.94,11.86-3.58,18-4,1.43-.24,3-.41,4-.59,1.54-.18,3.08-.41,4.56-.71h0l1.43-.17a30.12,30.12,0,0,1,7.19-.76c-.17.06-.23.06.16.06l.8.11c3.77-.23,7.42-.47,11.18-.64,4.51-.42,9,.47,13.75.53,3.19.11,6.33.23,9.4.64l16.6,2.64a10.47,10.47,0,0,1,1.88.41l2.85.83c2.4.7,4.85,1.23,7.19,1.93-.06,0-.23,0,0,.06v.12c1.3.52,3.48.76,5.07,1.29s3.14,1.17,5.19,1.87c4.45,1.76,8.9,3.35,13.34,5.11,1.43.7,2.8,1.41,4.22,2.12.46.34,1.2.7,2.11,1.23a113,113,0,0,1,16.77,9.38c3,1.94,6.16,3.76,9.12,6l8.84,6.81c.29.23.63.52,1,.82h.06c2.28,1.93,4.56,4,7.3,6.45l1.08,1a67.44,67.44,0,0,0,6.05,6c3.3,2.87,5.87,6.51,8.95,9.62.23.35.51.58.68.82,1.49,1.76,3,3.41,4.45,5.23a36.14,36.14,0,0,1,2.57,3.57c4.1,5.7,8.38,11.27,11.74,17.61a27.2,27.2,0,0,0,2.17,3.87l2.34,3.93.22.35.12.3c1.31,2.93,2.56,5.63,3.76,8.39v-.12c.57,1.59,1.32,2.76,1.94,4.17a27,27,0,0,1,2.45,5.51l5.19,14.32a51.45,51.45,0,0,1,1.72,6.81c1.48,6.87,3.53,12.26,4.33,15.91.63,3.46,1,5.27,1.37,5.27.11-.05.28.3.51,1.53.51,2.76.63,2.47.8,2,.06-.7.4.53.8,3h.11c.4,0,.63-.88,1.31,1.82.17.35.23.47.23.17,0-2.87,1.09.47,1.37-.94.11-.47.46,1.82.63,1.64-.29-2.11.06-1.52.34-1.46s.51.76.28-1.76a16.6,16.6,0,0,0,.23-3.46c-.05-.59.06-.53.18-.24.51.94.68.24.74-1.11l.34-.12c.45.41.11-2.4-.52-6.05l-.51-3.52c-.17-.81-.17-1.7-.34-2.4l-1-3.88c-.91-3.81-1.77-7.56-2.74-11.26-.68-3.93-2.45-7.57-3.65-11.5-1.82-5.34-3.53-10.86-6.15-16-.12-.3-.29-.65-.46-1.18-1.6-3.4-3.25-6.92-4.73-10.39-1.88-3.16-3.77-6.39-5.71-9.74-1-1.87-1.94-3.52-2.91-5.22-3.81-5.92-8.09-11.62-12.19-17.25-.35-.35-.12,0-.24-.17l-.11-.18h0c-2.74-3.17-5.59-6.46-8.33-9.68-4.27-5.46-10.08-9.81-15-14.79a69.43,69.43,0,0,0-5.71-4.88c-3.42-2.93-7.52-6-11.28-9-3.6-2.23-7.36-4.64-11-6.93-.8-.47-1.71-1-2.51-1.58-.23-.12,0,.06,0,.06l-.34-.24L376,89.79h0a16.23,16.23,0,0,1,2,1.29l1.37.82c1.37.71,2.74,1.52,3.54,1.82.11.12.22.12.11-.06,2.34,1.29,5.08,2.87,8.21,4.81a9.68,9.68,0,0,0,1.31.76c1.71.83,5.76,4.17,8.44,5.93l1.31.94V106l.57.42a33.06,33.06,0,0,0,4.05,3.1c1.37.71,1.89,1.76,2.86,2.65,5.36,5.22,11.34,9.91,16,15.72,1,1.17,1.82,2.11,2.51,3l.51.47c.74,1,1.77,2.11,2.57,3.23l.51.53a72.43,72.43,0,0,1,5.47,7l.86,1.12c.34.47.34.52.17.11.74.94,1.54,2.17,2.34,3.17l1.31,1.94c3.71,4.75,6.33,10.09,9.69,15.55.86,1.35,1.49,2.41,1.6,2.23.34.53.34.24.8,1a1.24,1.24,0,0,0,.17.29,9.47,9.47,0,0,0-1-1.29,38.35,38.35,0,0,1,2.11,3.29l.11.11.18.47.17.36c.8,1.58,1.14,2.29.85,1.29a28.93,28.93,0,0,1,1.54,2.93l1.37,2.82a33.54,33.54,0,0,0,1.66,3.57l0,.18c-.17-.23,0,.12.23.71.57,1.4,1.25,2.64,2,4.22.41.82.8,2.06,1,2.17.8,1.29,2.06,5.22,3.31,8.51l.8,2.29c.57,1.65,1.2,3.35,1.71,4.87,1.2,3.58,1.77,7.16,2.91,10.8.23,1.11.57,2.46.91,3.87.63,3,1.66,6.22,2,9.74l0,.82.18,1.47h.05v.17l-.05-.17c.62,5.58,1.71,11,2.16,16.9.06,1.18.23,2.64.23,4v.06a22.28,22.28,0,0,0,.46,5.11,10.6,10.6,0,0,0,.74,2.22c.34-.06.62,1.94,1,5.11.28,1.7.45,2.11.34-.18.51,1.53,1,1.06,1.31.18.23-.35.34-.53.57.71.11.7.17,1,.34.76l.8-2.47-.12-.88h.06l.06.88c.23.71.34.88.57.82.17-1.17.4-2.7.63-2.4.17.12.06-3.52.17-4.4-.11-2.18-.17-4.64-.29-6.75.12-5.4-.74-10.74-1.48-16.14s-1.2-10.74-2.68-16c-.28-1.29-.57-2.64-.8-3.75l-1.42-5.69h0a55.32,55.32,0,0,0-2-7.17,9.76,9.76,0,0,0-.68-2.34L471.33,184l-6.68-14.55a15.08,15.08,0,0,0-.85-2.29c-5.13-9-9.58-18.08-16-26.29a9.86,9.86,0,0,1-1.26-1.94,7.8,7.8,0,0,0-.8-1.35h-.06l-3.53-4.69c.29.41.68.94,1.08,1.47-.34-.53-.68-.95-1.08-1.47-6.5-7.75-12.37-15.67-20.07-22.53-1.31-1.18-2.57-2.47-3.71-3.53l-.57-.52c-1.14-1.18-2.51-2.47-3.71-3.65-1.25-.93-2.39-1.87-3.65-2.81l-.17-.18v-.06L401.7,93c-1.37-1-3.08-2.75-4.73-3.52-3-1.93-5.65-3.81-8.27-5.39,1.31.46,1.54.23,1.71.11,0-.29,2.4,1.23,2.28,1.06.8.06-.46-1-.23-1.17s.17-.36.91,0c.46.23.41.17,0-.18l.12.06-.12.12,2.34,1.17c1.94,1.12,1.54.7,1.37.53l-.91-1.24.06-.12c1.53.83,3.19,1.77,1,.24l-.74-.58c.92.23-1-1.06-1.25-1.47l.51-.82c-1.94-1.3-1.94-1.47-1.94-1.76h0c.69.29.69.12.23-.24-1.2-1.17.46-.53-1-1.88-.86-.7.28-.17-2.68-2.11a40.26,40.26,0,0,0-5.25-3.17c-1.25-.58-2.79-1.35-3.76-1.76l.11.06c-.22-.24.58.12,1.37.47,3.08,1.52.51.12.86.12l-1.49-.65c-3.93-2.11-8.61-4.4-12.77-6.69a76.25,76.25,0,0,0-9.86-4.22c-2-.77-3.82-1.47-5.82-2.11l-1.48-.53a62.07,62.07,0,0,0-6.5-2.47,42.07,42.07,0,0,1-4.34-1.17L339,53c-1.48-.47-3-.88-4.68-1.29-2.9-.76-3.07-.76-1.48-.23,4,1.23,7.82,2.29,12.09,3.46a12.53,12.53,0,0,1,2.34.59v.11l.34.06c.57.3,1.37.59,2.17.94-1.25-.35-2.51-1-3.71-1.29l-.51-.06-12.43-3.46-.57-.12h-.4a53,53,0,0,0-10.66-2.52l-1.94-.36-9.53-1.46c-1.6-.24-3-.53-4.05-.77l-.4-.11c-1.36-.17-2.79-.17-4.27-.35-1.26,0-2.74,0-4-.12L295.63,46l-1.71-.06c-3.76-.11-7.52-.41-11.17-.47l-11.18.47h-.06l-.06-.06c-2.79,0-5.92.18-8.72.3-5.93.7-11.92,1.76-17.85,2.69a105.63,105.63,0,0,0-12.54,2.76l-.12.12h0l.12-.12a33.48,33.48,0,0,0-4.73,1.24c-1.6.41-3.14.82-4.68,1.17a36.56,36.56,0,0,0-5,1.47l.11.17c.23-.17.4-.35-.11-.17-4.51,1.64-8.67,3.16-13.06,4.81-7.13,2.4-13.52,6.39-20.42,9.45h.06l-.17.17.11-.17-1.71.7c-7.93,4.81-16,9.27-23.44,14.85h-.11c.23-.18,0-.18-.11-.18.74-.59,1.77-1.41,2.79-2.11s2-1.35,3.37-2.35a20.22,20.22,0,0,0-3.42,2.29l-9.07,6.87L148,93.54c-4.11,3.17-8,7.28-11.81,10.57l-3.25,3a6.62,6.62,0,0,0-1.31,1.17c-1.14,1.12-2,2.29-3,3.29l-3,3.22-.58.71-8.38,9.68-7.53,10.39c-1.48,1.93-3.36,4.4-4.79,6.34a17.43,17.43,0,0,0-1.36,2.23c-1.6,2.58-3,5-4.51,7.51-2.62,4.4-5.41,8.45-7.41,13.49l-.35.59c-2.22,4.87-4.61,8.92-6.72,14.38-.46,1.05-.86,2.29-1.37,3.58l-.29.88-.28.7-.4.88c-1.14,3.11-2.28,6.46-3.43,9.39a110.29,110.29,0,0,0-3.41,11.91l-.29.83-.8,3.34h0c-.28.82-.51,1.94-.8,2.64l-.23.94a6.79,6.79,0,0,0-.28,1.12l-.34.64c.11-.53.11-.53-.06-.06-1,2.7-1.14,1.93-1.77,3.29l-.4-.12c-.74,2.47-.85,1.05-1.48,3.34l.06-.7c.4-3,.17-2.17-.18-1.17v-.65l-.16.65-.34,1.7v-.12a11.81,11.81,0,0,1,0-1.58c-.35,1.29-.75,3.11-1.15,5.39-.56,3.53-1.14,7.22-1.59,10.86-.17,1.7-.52,3.52-.69,5.4l-.11,1.76v1.88c-.23,3.17-.29,5.87-.4,9,0,4.1-.57,9.15-.29,13.84v.95l.17,3.52.12.11v.65h0a8.34,8.34,0,0,0,.06,2.93l.17,3.7c.11,1.59.17,3.69.17,5.17.17,2.05.51,4.4.8,6.51l.74,4.87c.57,3.58,1.14,7.74,1.65,9.56v0c.17,3.7,1.43,8.1,2.74,12.86l1.59,5.8c.35,1.53.52,2.65,1,4.47a23.21,23.21,0,0,0,2.06,6.1c.23.52.4,1.11.68,1.7,2.57,6.92,4.45,14.26,7.93,21.18v.12c1,2.11,2.16,4.46,3.08,6.63a68.33,68.33,0,0,0,4.73,9.45c1.37,2.35,2.51,4.58,3.65,6.45a24.51,24.51,0,0,0,2,3.05l3.13,5.52c1,1.94,2.34,3.52,3.48,5.34.11.06.11.06.06.12a2.27,2.27,0,0,1,.4.59l2.79,3.75a21,21,0,0,0,2,2.87.22.22,0,0,0,.05.12l3.2,4.46,1.48,1.94c4.11,4.87,8,9.56,12,14,.46.59,1.09,1.35,1.66,1.94,3.36,3.34,6.84,6.75,10.6,10.21.86.71,1.71,1.53,2.46,2.23l2.56,2.35c.8.82,2.57,2.05,3.54,2.93,6.67,5.11,12.77,10.62,20.18,14.85l3,1.88.85.59c6.16,4.22,12.89,7.56,19.62,10.91a3.11,3.11,0,0,1,.74.47l1.66.76,1.59.7,3.25,1.71h0c4.56,1.64,8.73,3.34,13.35,5.1,2.16.94,4.39,1.65,6.67,2.53,4.39,1.52,9.58,2.58,14.2,4,.8.23,1.65.46,2.39.7,2.23.53,4.51,1.23,6.84,1.65,1.66.17,3.37.46,5.08.76,4,.64,8,1.34,12,2,1.6.24,4,.65,4.16.35l-.29-.06.29.06c4.56.59,10.6.7,16.08,1a51.72,51.72,0,0,0,8,.17l1,.06c6.21-.23,12.49-.64,18.7-.93a15.44,15.44,0,0,0,1.66-.12h.11c-.11,0-.22.06.06.06a2.38,2.38,0,0,0,.8-.24c5.93-.88,11.91-1.76,17.85-2.76l.8-.11c1.19-.18,2.5-.53,3.65-.71a41.2,41.2,0,0,1,4.33-1.17c2.22-.53,4.68-1.17,6.89-1.76,1-.24,2-.53,2.63-.76h0l4.17-1.18h.28c4.5-1.64,9-3.34,13.4-4.92l.8-.36c2-.64,3.93-1.46,6-2.17a1.72,1.72,0,0,1,.74-.29l.92-.42a31.72,31.72,0,0,0,3.53-1.58l14-6.87c4.62-2.46,8.89-5.39,13.4-8.15l.79-.47c7.87-4.52,14.66-10.68,21.9-16,2.22-1.77,4-3.81,6.16-5.64l1.26-1.23c2.56-2.29,4.95-4.58,7.3-6.63,1.88-1.82,3.07-3.23,4.5-4.69l.57-.59,1.31-1.35c2.68-3.11,5.25-6,7.93-9.1,4.84-5.75,8.95-12,13.57-17.95a38.93,38.93,0,0,0,3-4.81l5.08-8.81c3.93-6.16,6.67-12.56,9.69-19.18.86-1.94,1.26-2.76,2-4.76-.68.77.34-1.88.12-1.93v-.12a12.26,12.26,0,0,0,1.08-3.35c-.17-.47-.63-.23,0-3a10,10,0,0,0,.17-3l-.06.24h0L488,347l.28-1a.86.86,0,0,0,.23-.53,10.35,10.35,0,0,0,.8-2.4c-.68.29.06-3.29.23-5.52.17-1.11-.23-.64-.86.29-.45,1.12-.51.89-.17-.23.69-2.4.34-2.06-.28-1,.23-1.17-.29-.53-1.09,1.23-.11.24-.34.71-.34.71.06-1.41-2,3.93-2.91,5.46-.4.88-1.42,4-1.88,4.75l-.17.52c-1.54,4.23-3.77,8.1-5.59,12.21l-.4.77c-1.88,3.81-1.65,2.76-1.76,2.4s-.52-.7-2.23,2.17c-.28.47-.51.94-1,1.88a6.85,6.85,0,0,1-1,1.53l-1.31,2.11c-1.48,2.17-3.2,5-4.68,7.57a83.84,83.84,0,0,1-8.09,12.2,101.5,101.5,0,0,1-6.68,9.8,44.13,44.13,0,0,1-4.1,5c-.74.88-1.6,1.7-2.28,2.64L434,419.23c-3.71,3.52-7.47,7-11.29,10.56-1.19,1.06-2.28,2.11-3.59,3.35-3.37,3-7.19,5.63-10.78,8.56l-1.77,1.23-.85.59L402.61,446c-.91.71-2.05,1.24-3,1.94l-1.31.88-1,.53c-3.88,2.4-7.81,4.87-11.63,7.22a59.89,59.89,0,0,1-6.16,3.16,5.93,5.93,0,0,0-.57.3l-.12.06.69-.36,1.14-1.17A10.49,10.49,0,0,1,383,457c2.1-1.35,1.65-1.58,1.48-1.7s-1.2.41.91-.94c3.94-2.76,8.33-5.4,12.55-8.1,5-3.11,9.46-7,14-10.51h0a74.08,74.08,0,0,0,7.76-6.51c3.77-3.7,7.64-7.57,11.12-11l.51-.59,1-1.17c.86-.94,1.6-2,2.28-2.7h0c.34-.47.69-.94.4-.7l.74-.94.17-.12c.57-.82,1-1.23,1.32-1.7l.45-.71a16.59,16.59,0,0,0,2.17-3.69,7.65,7.65,0,0,0,1.37-2.64,6.1,6.1,0,0,1,1.31-1.94c1.54-2.11.57-1.12.91-1.82s-.17-.17.51-1.23a7,7,0,0,1,.92-1.59c.11-.23-.06-.11-.12.06h0c.06-.17.06-.06.12-.06,1.2-1.87,1.14-2.05,1.08-2.23s-.29-.06.29-1.06c.28-.4.57-.81.91-1.23.74-1.28,0-.41-.17-.41l-.17.18h.05l.12-.18a21.56,21.56,0,0,0,1.59-2.75c-.45.52-.11,0,0-.18l-.17.18.06-.06c.68-1.18.74-1.53-.68.35-.12.06,0-.17.34-.59,1.31-1.93,1.08-1.93,1.19-2.23.63-1.76,2.4-5,2.12-5.81a6.46,6.46,0,0,0,.68-2.23,7.28,7.28,0,0,1,.63-1.76c.74-1.46-.23-.17,0-1l-.34-.23c-.52.53-.92.59-.58-.41-.11-.06-.11-.35-1.13,1.23l-.35-.17c-.23,0-.06-.82-.91.29l-.51.65c-.52.7.22-.53.68-1.42.74-1.64.91-2.28-.06-1.05l.29-.71.06-.23-.12.18h0l.12-.18a6.06,6.06,0,0,0,1-2.76,8.28,8.28,0,0,0,.69-1.76c.28-.88.8-2.17.63-2.52-.06-.18-.23-.35.79-2.23l.74-1.29c.52-1.06.12-.82.06-1.06l.17-.35c1-2.23,2.17-4.57,3.2-7l.68-1.3c1.09-2.28,2.34-4.57,3.42-7.21a67.52,67.52,0,0,0,2.68-6.52c2.17-6.62,5.19-13,6.68-19.83.57-2.29,1.13-4.63.74-3.87-.35.47-.17-.94.17-2.7.57-3.82.28-5.11,0-5.93a6.15,6.15,0,0,1,0-2.11c0-2.12-.11-3.94-.69-2.12h0c.06-.52.17-.93.23-1.46-.17-.06-.23-.18-.17-1.64s.46-3.41.63-4.87c.45-3.64,1.37-7.4,1.54-11.15.17-5.17.23-9.8.4-14.85A33.48,33.48,0,0,0,473.55,265.71Zm-9.24-35.14c0-.42,0-.65.17.28a0,0,0,0,0-.05,0l-.06-.23ZM406.89,97.18ZM102.66,321.28l.12.36a1.37,1.37,0,0,1-.12-.7Zm-6-30.45v0Zm355.2-121.77h0l-.06-.17Zm-47-58.5ZM347.47,56.22c-.12-.06-.29-.06-.29-.17h0Zm-38.15-8.68h0ZM63.83,270.47v0Zm5,42.25v-.06a3.82,3.82,0,0,1,.17,1C69,313.42,69,313.19,68.85,312.72ZM430.32,151.64h0l.12.17-.12-.17ZM230.11,52.52h-.05C230.11,52.52,230.06,52.64,230.11,52.52ZM447.55,388.07V388h0ZM227,81.86a5,5,0,0,1,.75-.23l-.4.12Zm238.88,108h0V190l.06.11ZM458,158.09l-.17-.29a1.2,1.2,0,0,0,.12.29Zm-14.88-20.6h0v0ZM364.18,62.38l-.06-.05c.06,0,.06.05.11.05ZM485.76,347.75h0ZM181.81,72.53a2,2,0,0,1-.4.24l.35-.24ZM105.63,394.7l.06.06-.29-.3Zm347.22,5-.17.24h0C452.74,399.8,452.74,399.86,452.85,399.74ZM468,192.19l.17.23-.17-.23Zm9.7,32.33c.06.12,0,.12.06.12l-.06-.12ZM481.59,251s-.17.07-.17.18C481.42,251,481.48,251,481.59,251ZM471,191.19v0Zm10.44,44.54h0Zm-14.77-51.88h0Zm3.93,4.88h0v.17l-.05-.17ZM472.47,203h0v0ZM463,177.57l.17.3v-.18C463.12,177.69,463.12,177.69,463,177.57ZM68.79,303c0,.13.06.3.06.41a4.27,4.27,0,0,0-.17-.58Zm79.38,139.61h0c0-.06,0,0-.06-.06Zm281.24-14.79-.06.12c.06-.12.12-.12.23-.3Zm-14.76,3.35-.06.12.17-.3.11-.12a.77.77,0,0,0,.52-.29,2,2,0,0,1-.63.41ZM222.19,448.39ZM98.9,221a5.83,5.83,0,0,1-.28.76,6.23,6.23,0,0,0,.33-1.11A.62.62,0,0,1,98.9,221Zm-.46-3.17Zm356.29-59a6.52,6.52,0,0,1,.29.59l-.29-.59ZM430.5,125.7l-.06-.12h0Zm3.93,2.88-.57-.53c.23.17.23.29.4.29Zm-322,8.27v0Zm60,324h0v0ZM410.6,106.68h-.06l-.12-.11ZM71.42,232.27l-.06.23h0C71.36,232.38,71.36,232.44,71.42,232.27Zm13,120.06v0ZM283.94,457.78h0Zm-41.79,28h0Zm43.28,6h0Zm103.1-28.05h-.17C388.41,463.59,388.41,463.7,388.53,463.7Zm59.64-98.23-.11.47-.23.12A1.72,1.72,0,0,0,448.17,365.47ZM101.52,334.73h0a.85.85,0,0,1-.12-.36h0C101.41,334.61,101.41,334.61,101.52,334.73ZM95.76,219.06Zm238-162.49h0Zm-87.47-2.46h0ZM353.86,479.78h0Zm-116.5-25.93h0ZM69,292.77c0,.29.06.35.06.7l-.06-.18ZM339.43,482Zm-246.12-184a6.3,6.3,0,0,0,0-.88c0,.58.16,1.05.22,1.47v-.06Zm69.63-186.73v-.06l-.06.06v-.06h.06c-.17.18-.06.18.11,0ZM351.23,84.86h0ZM365,67l-.12-.06H365Zm-261.47,87.9h0l-.34.71h0A7.79,7.79,0,0,1,103.57,154.92ZM379.18,467.11ZM166.3,453.67h0ZM320.44,71h0Zm-77,412.88.35.12h-.35S243.51,484,243.45,483.89Zm103.34-6,.39-.17.12.05A.88.88,0,0,0,346.79,477.85Zm14.19-4.4.18-.18ZM78.6,326.74v-.11a2.79,2.79,0,0,0,.12.35ZM197.38,444.22h0ZM99.7,193.71h-.06l.34-.7Zm49.83-72.53h0Zm195.6-55.75h0l-.22-.06s.33.06.22.06l-.34-.11.29.11ZM86.81,193.71h0c-.17.3-.34.71-.52,1C86.47,194.36,86.64,194,86.81,193.71ZM93.37,359l.57,1.17C93.71,359.72,93.54,359.43,93.37,359ZM325.29,483l.34-.11a.79.79,0,0,1-.51.11ZM313.6,460.13h0ZM138.53,127.52l.23-.24c-.12.06-.12.06-.17.18ZM333.44,68a3.25,3.25,0,0,1,1,.17,6.73,6.73,0,0,1-1.08-.17ZM87.15,274.16v0Zm119-195.29.11-.12-.11.12Zm6.55-7.75c-.11.06.06,0,0,.06h-.17Zm72.83-10.68a4.69,4.69,0,0,1-.92-.06h.69l.34.06h-.11Zm2.1-2.22h0l.17.11A.15.15,0,0,0,287.59,58.22Zm11.35,2.16a.86.86,0,0,0-.51-.11h.51Zm-47.33-1.05h0ZM143.09,114.61H143c.11,0,.11,0,.11-.18Zm-30.16,279,.23.18h-.06ZM86.13,207.91v-.17h0ZM86,218.48v-.12h.06Zm-1.08-4.11.06-.12.11-.29Zm28.74-67.08h0Zm27.65-27.87h0Zm-53.88,94-.12.12.12-.12Zm-.29.94h-.06l.06-.12Zm2.4-22.18a5.92,5.92,0,0,1-.46,1.34c.11-.52.4-.93.46-1.46Zm22.92-29.87v0Zm-17.11,31.8-.06.3h0A1.22,1.22,0,0,0,95.36,194.12Zm-6.5,17.72a19.54,19.54,0,0,1-.57,2.23l.06-.52C88.64,212.67,88.69,212.31,88.86,211.84Zm62.62,204.22v.17l-.18-.17ZM86.87,324.63h-.06v-.06Zm7.3,28.17.34.7c0,.06-.06-.12-.12-.18ZM251.84,481h0v0ZM82.7,296.7a1.36,1.36,0,0,0,.12.47A.89.89,0,0,1,82.7,296.7ZM79.4,282v0Zm.34-3.87v0Zm1.14,15.19c-.06-.64-.06-1.17-.06-1.35s0,.18.06.42Zm.52,22.48v0Zm-3.15-5.69a.42.42,0,0,0,0-.24l0,.24Zm-.17-36.5v0ZM267.58,480s-.11,0-.11.06S267.52,480,267.58,480Zm34.67-1.7h0Zm-44.08-14h0Zm58.05,4.64v-.06h0Zm-29.14,3.4Zm-10.27-3.16Zm-26.34,9.5h0Zm2.46-.53h0Zm55.53-8.44-.22.05Zm-41.68.28h0a1.57,1.57,0,0,1-.51-.05h.85ZM126.27,401.56l.35.41a2.31,2.31,0,0,0-.35-.35Zm25.49,26.7-.11-.12.17.12Zm-6.33-8-.17-.35.23.18Zm8.22,6.87h0Zm28.79,21.36Zm1,1.23c.06,0,.06,0,.06.12v-.12ZM267,474.27v.18l-.12-.12-.05.12-.51-.18.56.06ZM203.59,460l-.11-.12h.06l.05.12Zm19.34,8.27h0Zm-5.59-2.63-.12-.13Zm-1.25,1.46Zm36.37.64.29.06.12.12Zm13.41,7.46h0ZM240,474.86l-.23-.06.29.06Zm-76-37.68-.17-.17h0Zm-48.58-51.82-.17-.17c.11.06.11.06.11.17Zm190,87.21-.06.12h0Zm-22.87,4.81.35.06h-.06Zm-7.07-.76a5.89,5.89,0,0,0-1-.12l1.37.12ZM116,387.54a10.19,10.19,0,0,0-.86-1.18C115.32,386.72,115.67,387,116,387.54Zm59.93,52.4.11.06-.11-.06Zm73.34,26.29,1.88.18a3.57,3.57,0,0,0,.51.23,1.72,1.72,0,0,1-.63-.12A11.75,11.75,0,0,1,249.28,466.23Zm44.19,5a16.51,16.51,0,0,1,1.82-.12C294.66,471.1,294.15,471.16,293.47,471.22Zm17.39-5.7.8-.17-.17.06Zm-46.71,13.21h0Zm-13.45-1.35v-.06h0Zm-142.16-97.3a1,1,0,0,1,.28.48v-.06c-.06,0,.06.29.06.29A5.93,5.93,0,0,0,108.54,380.08Zm20.7,17h0Zm135.54,82.34h0ZM135.05,414.12,135,414l.06.12Zm65.58,40.2h0Zm86.79,17h0Zm52.63-7.22h0ZM315.71,473h0ZM190.19,460.89h0Zm-48-37.09h0ZM100,353.15l-.17-.23h0ZM122.85,388v.12h.06Zm129.56,76.17Zm3.36.29h0Zm76.3-2.23h0l-.06.12Zm-1.65,3.34h0l-.17.18c-.06,0,.11-.18-.06-.05l.23-.13ZM305.9,479.26h0ZM185.52,458.9l-.86-.42c.17.06.46.3.63.3l.17.06Zm-9.12-5a.53.53,0,0,0-.29-.18A.53.53,0,0,1,176.4,453.85ZM81.45,285.19v.06h0S81.45,285.25,81.45,285.19Zm34.39,94.89h0v0Zm114,80.87-.5-.12A1.58,1.58,0,0,0,229.82,461Zm89.77,1.23h.5C319.81,462.3,319.53,462.36,319.59,462.18Zm.68,10-.12.11-.17.06h-.05l.22-.06.18-.11Zm-2.45,2h0ZM314,475.79h0a2,2,0,0,1-.57.12h.05a2.1,2.1,0,0,0,.52-.12ZM82,269.23v0Zm2.39,26.59v0Zm2.91,13v0ZM145.72,411c-.23-.17-.29-.23-.57-.47h.11A3.26,3.26,0,0,0,145.72,411Zm8.61,8.4c-.06-.12-.12-.12-.18-.12h.06Zm47.1,31.21c.23.12.45.3.57.3h-.23A3.12,3.12,0,0,1,201.43,450.56Zm84.39,14.2a6.53,6.53,0,0,0,1-.06l-.45.06Zm65.13-7h0Zm-7.19,7.51h0Zm-61.24,15.55-.06-.06h.06ZM191.85,444.4h0v0ZM313.6,461.83l.4-.06-.18.06Zm57.82-12.2h.17a2.83,2.83,0,0,1-.57.11C371.25,449.74,371.25,449.68,371.42,449.63ZM298.77,485l-.06-.06h.06ZM267,482.6ZM132.66,414.83v-.12l.11.12.17.17.06.12-.17-.12-.06-.17ZM78.25,265.89h0v0ZM80.31,259v0ZM80.48,218v-.3l.06-.11Zm84.86-117.72Zm-21.11,23.18c-.11.06-.11.06-.17.06h.06Zm235,321.34a5.76,5.76,0,0,1-.91.53A3.46,3.46,0,0,0,379.23,444.75Zm5.42-5.45.12-.06-.12.12ZM388.7,437a8,8,0,0,1,1-.71h0A2.74,2.74,0,0,0,388.7,437Zm-66.84,40.14c-.11.17,0,.17-.11.17h-.22a.37.37,0,0,0,.28-.17Zm-38.66,6.16h.29c-.17,0-.17,0-.29.12Zm-32-.59c-.29,0-.46-.12-1.14-.18l.11.06A7.11,7.11,0,0,0,251.16,482.72ZM202.4,470.1h-.17l-.35-.12A.92.92,0,0,0,202.4,470.1Zm-103.1-296a3.82,3.82,0,0,1,.34-.7l-.06.23ZM116,142.6l0-.12Zm38.32-37.44.4-.35c.16-.17.68-.53.85-.7A11.33,11.33,0,0,0,154.33,105.16ZM169.84,102c.06,0,.17-.06.23-.06l-.29.06ZM116.18,156l0-.06.18-.35-.06.11ZM89.55,219.53v0Zm-5.88,29.23v0ZM93.88,335.2l.06.34h0ZM111.79,369v0Zm104.3,88.37-.29-.06c-.06-.06.06,0,0-.06Zm110.8,15h0Zm-73.11,10.8h0Zm-40.72-8.45H213c-.12-.06-.12,0-.18-.06ZM77,316.42v.05h0Zm3.14-76.76v0ZM334.52,61h.12c-.12,0-.17-.06-.29-.06ZM194.19,441.88c.06,0-.29-.18-.29-.18l.35.18h-.06Zm210.81-15h0c-.05.06-.05.12-.16.12Zm-52.17,36.68h0ZM328.54,472h0Zm-1.37,6.28.34-.18Zm-93,.23Zm-50-16.37-.23-.18.06.12.17.06Zm-33.76-27.64-.62-.23c-.18-.12-.12-.12-.18-.18S149.77,434.19,150.39,434.54ZM82.48,336.66v0Zm-8.56-68.83v0ZM216.66,68a2.65,2.65,0,0,1,.85-.47,2.75,2.75,0,0,1-.46.29C216.83,68,216.83,68,216.66,68Zm23.49-8.39h0Zm33.47-5.11h0Zm6-1.41h0Zm32.68,5.28h0ZM136.71,130.86h-.06l.11-.12ZM110.76,168v-.06l.23-.47C110.87,167.6,110.87,167.77,110.76,168Zm-19.39,45V213h0Zm-5.82,44.36v0ZM119.2,376l-.11-.12h0Zm57.65,55,.29.24S177.08,431.2,176.85,431Zm1.54.53.06.06h-.06Zm15.63,10h.23c0,.11-.06,0,0,.11A.24.24,0,0,0,194,441.59Zm58,16.72h0Zm74.82-1.23h0Zm73.27-22.71v.11H400Zm-68,44.18h0Zm-90.67,2.93h0ZM194.7,468.69l-.34-.05h.17Zm-14.82-8.56a2.69,2.69,0,0,0-.69-.47v0ZM150.22,104.92h.17a.89.89,0,0,0-.39.42C150,105.28,150,105.16,150.22,104.92ZM219.9,64.26l.12-.12v.12Zm47.85-11Zm74,9.15h0ZM327.22,72.53h0ZM181.7,92.61h0ZM93.31,328l.06,0ZM295.69,462.3h.17l-.23.06Zm133.38-57.45a1.85,1.85,0,0,0-.46.58ZM295.46,486.3h0ZM72.55,245.64h0v0Zm5.53-21.12v-.18h0v.06h0Zm67.35-118,.29-.35Zm1.83.59-.35.47C147,107.39,147.2,107.27,147.26,107.1ZM94.68,205.27v0Zm-1,2.29v0ZM221.39,451h.06l.22.06Zm92.32,7.1c.06-.06.06-.06.11-.06l-.11.12Zm76.75-12.68v.19h-.22Zm-33.75,18.14h0l-.35.11Zm.34,10h0Zm-6.28,5a2.23,2.23,0,0,1-.68.3,4.94,4.94,0,0,0,.63-.3Zm-126.47.12-.17-.12h0ZM175.37,459.6l-.11-.12h0Zm-31.93-28.7h0c.23.12-.46-.47,0,0l-.06-.06ZM77.8,328.15v0ZM352.89,65.84h0Zm-29.15,5.81-.05-.05.11.05Zm-87.92,1.59h0v0ZM198.64,441.4a4.56,4.56,0,0,0,1.08.65h0l-1-.46-.05-.19Zm176.48-2.69h0Zm-1.82,15.9a1.41,1.41,0,0,1-.45.18,4.33,4.33,0,0,1,.68-.24C373.47,454.61,373.3,454.61,373.3,454.61Zm-29.6,18.66a.53.53,0,0,0-.5.18v-.06A.76.76,0,0,1,343.7,473.27Zm-46,15.44c0-.12.23-.12.57-.18A1.59,1.59,0,0,0,297.69,488.71Zm-64-5.58h0Zm-77.38-38.38v-.11l.22.29Zm-30.45-26.29h0l-.29-.29.29.29-.06-.17.17.29ZM90.23,359.2h-.06l-.17-.36C90.12,359,90.17,359,90.23,359.2ZM79.4,209.38l.34-1.29ZM139.22,110l.05-.11-.05.11ZM346.16,75.82,346,75.7l.11.06ZM310.69,69.6Zm-58.51-1.29ZM149.53,124.59h0ZM90.69,276.16v0ZM249.5,454.43h0Zm36.84,5.81Zm60.45-11.38h0l-.06.06Zm24.17,8-.23.12h.06Zm10.61,9h0Zm-111,23.88h0Zm-31.36-6.86-.8-.18C238.67,482.72,238.89,482.9,239.18,482.9Zm-10.6-1,0,.06h0Zm-21.67-7.1.33.17ZM188.31,467l.12.12h.11Zm-58.68-43.6A33.28,33.28,0,0,0,133,426h-.06C131.4,424.68,130.38,424,129.63,423.39ZM92.8,364.3l-.18-.18.12-.06C92.74,364.24,92.74,364.24,92.8,364.3ZM73.35,240v0Zm42.49-104.22.17-.23-.06.12Zm0-1.17v0C115.89,134.56,115.84,134.73,115.84,134.62ZM168.3,86.67l-.23.18h0Zm46.42-24.46h-.12l-.06.17a.92.92,0,0,0-.56.18l.74-.35ZM292,50.47h0Zm10.14,2.35h0a3.62,3.62,0,0,0-1-.12h.05Zm58.23,11.79h0Zm-6.33,21,.06.12H354l.17.06h0l-.17-.06ZM197.67,87.91l-.41.18.18-.06ZM90.74,230.15c.17-.17.17-.35.29-.47Zm-.22,43.66v.12h0ZM179,429h0Zm105.56,30.51h0ZM426.22,397l.06-.18h-.06Zm3-1.82a6.71,6.71,0,0,0-.58.64c0-.06,0-.06.06-.18A3.07,3.07,0,0,0,429.19,395.17Zm4.1,2.34-.4.53.17-.29S433.23,397.51,433.29,397.51Zm-73.1,66.78h.05v.06Zm-3.2,8.57v.06h-.05Zm19.33-5.75h0Zm19.22-8.8h0Zm-45.45,22.12c-.4.18-.74.35-1.08.53Zm-57,9.51Zm-40.55-1.53h0Zm-98.71-44.36h0ZM100,377.5v-.18l.17.24c.06.12.12.29.18.41C100.27,377.85,100.1,377.68,100,377.5Zm-6-11ZM72.1,314.89l.11.11c-.11.13,0,.71.23,1.59C72.44,316.59,72.27,315.65,72.1,314.89Zm-3.48-48.53a4,4,0,0,1-.17-.59C68.51,265.77,68.56,266.07,68.62,266.36ZM146.8,99.12l0-.12,0,.12ZM358,63c.23,0,.29.11.52.17,0-.06.11,0,0,0S358.25,63,358,63ZM315,71.24l-.57-.06A4.15,4.15,0,0,1,315,71.24ZM187.74,93.54h-.17l.17-.06Zm-49.61,41.84h0l0,.06Zm-1.42,1.94h0Zm3.59,254.09v-.06l-.11-.05ZM288,460.54c-.51,0-.62-.06-.68-.12Zm161.78-54.4-.17.23C449.49,406.49,449.6,406.32,449.77,406.14ZM308.18,490.35l-.17.06h.06Zm-35.47.7h0Zm-62.1-13.61h0Zm-72.48-43.78c.29.29.4.29.12,0l-.12.12.69.59-.12-.18c-.17-.06-.28-.24-.57-.41Zm-40.89-56Zm10.1-231.15c.06-.06.06-.11.11-.17l-.11.11Zm49.38-53.22v.11h-.11v-.11Zm22.07-13.73.17-.12.17-.18.23-.17-.4.35h-.05Zm32.62-16.79.28-.12c-.05.06.06,0,.06,0Zm7.47-4.69h0v0Zm6-1h0Zm135,22.65Zm-208.36,43.9v0Zm-29.09,32.68h0ZM94.45,225.22l.06-.12-.06.24Zm1.43,90.14v-.17h0Zm.8,3.76v0Zm39.74,67.48h0v0Zm57.25,49.29Zm219.49-26.76.35-.29-.18.12-.11.12v.05C413.22,409.08,413.16,409.13,413.16,409.13Zm-3.42,3.05Zm12.54-10.5v0Zm13.81.65v-.06h0ZM405,438.94l-.11.06.11-.06Zm-3.88,14.73h0l-.17.06,0,.12Zm11.75-9.74h-.17c.17,0,.23-.12.4-.29Zm30.68-30.16v-.06h0ZM469.45,378v0Zm.74,5.63a7.85,7.85,0,0,1,.51-.93c.11-.18.06,0,0,.11Zm-169.36,108h0Zm-58.4-6.16h0Zm.52.76h0Zm-72.37-27.52h0ZM98.78,382ZM85.84,185v0ZM378.44,72.59v0Zm-9.07-1.23-.58-.24Zm-13.75,17a.11.11,0,0,1-.11-.11h0ZM222,81l-.4.24.05-.06C221.73,81.22,221.79,81.16,222,81ZM120.45,367.58l-.11-.11h.11Zm6.85,5.29a2.36,2.36,0,0,1,.4.58Zm230,70.77-.18.17v-.12Zm71.11-52.81h.05l.17-.24Zm37.75-68.78-.11.23.05-.23C466.08,321.93,466.08,322.05,466.14,322.05ZM422.06,442l-.23.06c.11-.06.28-.06.34-.17ZM391,462.42l-.23.11-.17.12A1.84,1.84,0,0,1,391,462.42ZM294,491.05h0Zm-134.7-40.9a.61.61,0,0,1-.28-.12h0ZM92.8,369.52a14.44,14.44,0,0,0-1.14-1.94,4.69,4.69,0,0,1,1.14,1.82Zm-23.09-64.2v0Zm.28-65h0Zm30-87.43v0Zm76.13-72.82v0ZM372.9,67.78H373l.06.18Zm-2.79,5.4h-.06c-.11-.06-.11-.12-.29-.12Zm6.67,10.33a4.9,4.9,0,0,0-.86-.36A4.9,4.9,0,0,1,376.78,83.51Zm-14.71-.94v0ZM205.36,87.14l-.39.18a5.9,5.9,0,0,1,1-.53h0Zm-1.31.59-.28.18.68-.35Zm-27.6,15.79h.11l.06-.06-.06.06h-.11ZM97.65,217v.17h0Zm-5.48,54.4h0ZM95.65,303v-.17h0ZM155.47,408.6l.06.06-.12-.06ZM475.89,375l-.17.29c.11-.11.06-.05.11-.17C475.83,375.22,475.89,375,475.89,375ZM242.15,487Zm-97.92-46.53.18.18h0ZM97.3,383h0v0ZM66,254.27v0ZM198.46,66.2l-.11.06.11-.06Zm235.29,61.67.11.18.06.06-.06-.12Zm8.38,14.61h0Zm-.4-1.93.06.12h0ZM375,85.27H375l-.11-.06Zm88,123.76v0Zm-12.43-33v.06h0Zm-41.06-56.22.35.36v.11Zm-3.24-2.29h0Zm-6.68-6.28-.22-.11.22.06Zm10.89,8.69h0v0Zm38.38,49.7.12.3.05.17h0Zm-36.72-44.42-.06-.12V125h0ZM416.3,129l-.06-.11h.06Zm53.38,97.3a2.61,2.61,0,0,0,.11.94,3.11,3.11,0,0,1-.11-1h0Zm-.41-1.52v0Zm-2-2h0v0Zm-19-42.66-.11-.3h0ZM107,340a2.46,2.46,0,0,0,.17.53A1.32,1.32,0,0,1,107,340ZM256.52,453.85v-.12h0Zm182.19-64.2Zm5.36,4.22h0v0Zm-28.91,36.74-.06.18v-.12Zm-21.56,26-.11.06.11-.06h0l.12-.06-.17.12Zm79.38-84,.12-.17c-.23.47-.23.47-.46.88A2.38,2.38,0,0,0,473,372.57ZM261.59,491.05h0Zm-18-2.82h0ZM119.14,415.3v-.12l.46.52h0ZM71.07,317.12h0v0Zm90.84-231h0v0Zm221.6-10.92h0Zm91.92,141.49h.06c-.06-.06-.06,0-.06.06ZM388,92.61l-.11-.13.34.18C388.19,92.61,388,92.61,388,92.61ZM461,208.68a2,2,0,0,0-.06-.41.48.48,0,0,0,.17.23Zm-25.83-50.94-.18-.12h0ZM161.74,118.07a5.52,5.52,0,0,1-.85.59h0C161.17,118.42,161.4,118.31,161.74,118.07Zm-21.21,18.55.17-.3Zm16.76,271.69h-.11v0ZM395.6,421.22l-.29.12h-.05C395.43,421.28,395.49,421.22,395.6,421.22ZM434,379v-.12h0Zm29.6-55.92v0ZM460.78,344l.11-.24-.11.12Zm-15.91,39.43h-.06c.11-.17.06-.11.17-.17ZM409.12,453l-.06.06c.06-.06,0,0,0-.06Zm-83.55,36.62h0ZM227.89,485h0Zm-49.16-19.72a1.87,1.87,0,0,0,.92.41c.34.29.34.29.34.35C179.53,465.82,179.19,465.52,178.73,465.29Zm-74-68.66-.12-.11h0ZM64.62,265.77l.06.12c-.06,0-.06,0-.06-.06v-.06ZM76,206.91h0v0Zm8-23.82-.06.06Zm4.9-10.33h0l.11,0ZM336.23,54.23l.29.06Zm68.09,42.13,1,.82c-.06,0,.06.18-.06,0Zm12.78,11.79.06.12Zm26,29.4a3.73,3.73,0,0,1,.4.71Zm30.28,56.34v-.18h-.11Zm-65.52-84.68h0ZM377.24,88.14l-1.2-.58a1.1,1.1,0,0,1,.4.11A4.8,4.8,0,0,1,377.24,88.14ZM377,89.49Zm86,106.63v.06h0C462.83,196.12,462.94,196.12,462.94,196.12Zm6.56,35.09v-.06h0Zm-31.3-69.54h.11v.12ZM387.73,107h0Zm-4.79-2a1.73,1.73,0,0,1,.51.18c.06,0,0,0,.12.18A1.38,1.38,0,0,0,382.94,105ZM350,87.73ZM151.48,128.05a3.82,3.82,0,0,1-.63.64l-.4.35C150.79,128.75,151.13,128.34,151.48,128.05ZM95.59,280.74v0Zm374.94,18.71h0c.06-.17.06-.52,0-.47h-.06ZM386.7,456.61c0,.06.17-.06.17-.06a.39.39,0,0,1-.34.12C386.65,456.67,386.7,456.67,386.7,456.61Zm27.72-18.25-.17.17c.11-.17.23-.17.45-.35C414.7,438.24,414.53,438.36,414.42,438.36Zm-.86.17ZM197.15,474.8h0l.11.06Zm-21.38-10.74h-.06l-.28-.18.34.18Zm-36.72-27.23v-.12l0,.12ZM65.59,257.62v0Zm2-28.53v0ZM181.81,72.35h0l.12-.11Zm118.9-24.23h0ZM366,62.79h0Zm57.87,50.82-.16-.12h0l.11.12Zm-21.44-4.81-.06-.12.06.12Zm68.09,131.27V240l-.11-1h0Zm-14-39.55-.06-.18h.06Zm-7.7-18.43h0l.63,1.35h0A5.67,5.67,0,0,1,448.8,182.09ZM174.74,109.21h0v0Zm-20.18,16h.11c-.17.06-.11,0-.23.06ZM133.8,376.62a1.72,1.72,0,0,1,.34.53,1.1,1.1,0,0,0-.34-.41ZM299,455.49l.28-.06h.12A.93.93,0,0,0,299,455.49Zm148.55-67.42c-.18.29-.18.35-.34.58l.34-.58Zm28.05-24.65h-.11l.11-.23Zm10.61-12-.06.23v-.11ZM294,493.4h0Zm-19.5.06-.17-.06h0Zm-34.73-4.4-.06.12-.17-.12ZM123,421.11l-.17-.18.17.06ZM77.12,201.63h0v0ZM157.07,87.56l-.35.23v-.06Zm108.46-41.2h0Zm121,34.92-.18-.06h0Zm21.61,17.13h0ZM478,204.8v0ZM393.83,99.12l-.17-.12h0C393.72,99.12,393.72,99.12,393.83,99.12Zm48.64,54.81h0Zm22.36,46.83c.17.28.17.58.4.93A4.63,4.63,0,0,1,464.83,200.76Zm.17,28.57c-.17-.82-.35-1.52-.4-2l0,.06A19.08,19.08,0,0,1,465,229.33Zm-4.28-13.44-.06-.17h0Zm-.17-.41h0v0Zm-42.89-79.16h0l.18.17Zm-3.92-5.22-.12-.12.12.06ZM357,91.08h0Zm-7.13-2.94-.22,0,.17,0ZM220.7,84.38l-.34.12h0C220.42,84.5,220.59,84.38,220.7,84.38ZM95,263.54v-.17h0Zm6.32,57.92v0Zm31.37,52.93.28.41h0l-.28-.29ZM298.89,454.2h0Zm56.5-12.68.12-.12-.12.19h0ZM381.51,428h0Zm39.18-33.45-.17.24.11-.12Zm28.91-21.13v.12h0Zm-72.48,87.09h0Zm33-19.89.12-.12c.74-.53,1.48-1.17,2-1.53s.17.06-.23.36A19.45,19.45,0,0,0,410.08,440.65Zm77.16-94.84h0l.17-.35ZM221.56,484.24h0ZM386.7,74v-.12c-.05,0-.05,0-.17,0Zm60.11,65.9h.05c0,.06-.11,0-.05.06v-.06ZM485.13,259v-.17h0Zm-22.36-65.43.06.18h0l-.06-.18Zm-194.91-118h0l.12-.06Zm-10,.87h0l-.45.06h0ZM141.67,139.78h0ZM116.52,349.63v0Zm7.7,12.67.11.3a2.56,2.56,0,0,1-.11-.24Zm171.41,92Zm72.88-20.19c-.11.06-.28.24,0,.06ZM469,297.87v0Zm-50.53,136.5v0ZM471.67,388h-.17V388ZM431,436.83,431,437l.06-.12Zm-23.44,19,.17-.17h0ZM369.94,476.2c.68-.41,1.31-.64,1.76-1C371.14,475.56,370.51,475.79,369.94,476.2ZM67.77,223.4v.06h0Zm2.79-3.1.06.11c-.06.06-.06.06-.12.24A.7.7,0,0,1,70.56,220.3Zm75.9-125.23h0l-.29.29C146.29,95.24,146.35,95.24,146.46,95.07ZM269.18,46h0ZM390.41,85.74l.34.17-.11-.11-.23-.06-.69-.47h0Zm84.34,134.44h0v0Zm-31-46.71h0l.06.11ZM99.18,228.75l.06-.36v.12Zm50.87,167.18.06.06-.11-.18h-.06Zm212.42,41.25h0Zm98.65-113.95h.06C461.12,323.23,461.18,323.11,461.12,323.23Z"/><path class="cls-7" d="M301.68,46.13c-1-.12-2.62-.18-2.68-.24a19.57,19.57,0,0,1,2.68,0l2.51.12c.62.12,1.37.12.91.12a22.08,22.08,0,0,1-2.85,0Z"/></g></g></svg>